<?xml version="1.0" encoding="utf-8"?>
<!-- Generator: Adobe Illustrator 25.2.1, SVG Export Plug-In . SVG Version: 6.00 Build 0)  -->
<svg version="1.1" id="Layer_1" xmlns="http://www.w3.org/2000/svg" xmlns:xlink="http://www.w3.org/1999/xlink" x="0px" y="0px"
	 viewBox="0 0 1585.6 638.5" style="enable-background:new 0 0 1585.6 638.5;" xml:space="preserve">
<style type="text/css">
	.st0{fill:#C70D3A;}
	.st1{fill:#323232;}
</style>
<g id="graphs_and_statistics_outline_II" transform="translate(2.6 2.6)">
	<g id="graphs_and_statistics_outline_II-2">
		<g id="graphs_and_statistics_outline_II-3">
			<g id="flower_1_" transform="translate(115 93)">
				<g id="leaves_1_">
					<g id="leaf_IV_1_" transform="translate(72 60)">
						<path id="Path" class="st0" d="M7.5,12c13-14.7,32.8-18,51.5-9.7c18.7,8.4,33.1,27,37.8,50.7l0.5,2.4l0.2,0.8
							c3.9,19.6,7.7,28.3,15.8,36.9l0.3,0.3c4.3,4.4,22.8,20.9,25.4,23.5c1.2,1.1,1.3,3,0.2,4.2s-3,1.3-4.2,0.2c0,0-0.1-0.1-0.1-0.1
							l-2.6-2.4c-6-5.5-19.8-17.9-23.3-21.5l-0.1-0.1c-8.9-9.6-13.1-19.2-17.3-39.8c-0.2-0.8-0.3-1.7-0.5-2.6
							c-8.7-45.5-55-66.3-79.1-39C1.7,27.8,0.6,45.6,7,66.8c4.6,15.3,13.3,31.9,19.6,39.8l0.3,0.3c3.1,3.8,4.5,10.6,6,26.5l1.5,16.1
							l0.3,3.3c0.5,4.6,0.9,8.7,1.4,12.7c1.3,11.7,3.4,23.2,6.2,34.6c0.4,1.7,0.9,3.5,1.4,5.2c0.4,1.6-0.5,3.3-2.1,3.7
							s-3.3-0.5-3.7-2.1l0,0c-0.5-1.8-1-3.5-1.4-5.3c-2.8-11.6-5-23.4-6.3-35.3l-0.2-1.9c-0.4-3.5-0.8-7-1.2-11l-0.4-4.2
							c-0.3-3.6-1.1-11.8-1.2-13.4l-0.2-1.7c-1.4-14.2-2.7-20.8-4.7-23.3c-6.9-8.4-16.1-26-21-42.3C-5.7,45.5-4.5,25.7,7.5,12z"/>
					</g>
					<g id="leaf_II_1_" transform="translate(0 220)">
						<path id="Path-2" class="st0" d="M32-2.5C49.2-4,67.4,3.8,80.9,19.3l1.3,1.5c7.5,8.7,12.8,13.7,17.9,16.9
							c4.3,2.6,8.5,4.2,15.7,6l1,0.2c2.6,0.6,15.5,3.4,20.7,4.7l2.2,0.5c9.9,2.5,20,5.4,31.6,9.3c17.2,5.7,33.4,17.2,48.7,33.8
							c1.1,1.2,1.1,3.1-0.1,4.2s-3.1,1.1-4.2-0.1c0,0,0,0,0,0c-14.7-15.9-30.1-26.8-46.3-32.2c-11.9-4-22.2-7-32.3-9.5l-2.7-0.7
							c-6.4-1.5-18.5-4.2-19.5-4.4c-8.1-1.9-13.1-3.7-18.1-6.8c-6-3.7-11.9-9.3-20.2-19.1C51.7-5.7,10.1-2,4.1,27.3
							c-2.6,12.7,4,26,17.3,38.8c9.6,9.2,22.7,17.8,30.5,21l0.4,0.2c4,1.6,7.9,6.1,15.7,17.2l9,12.9l1.6,2.3
							c4.4,6.1,8.3,11.4,12.4,16.5c13.4,16.6,26.9,29,41.7,37.1c9.1,5,17.6,7,26,6.7c6.3-0.2,11.9-1.5,19.9-4.3l5.9-2.1l1.4-0.5
							c1.3-0.5,2.5-0.8,3.6-1.1c3.1-1,6.4-1.5,9.7-1.4c7.1,0.4,12.6,4.7,17.2,13.8c0.8,1.5,0.2,3.3-1.3,4.1
							c-1.5,0.8-3.3,0.2-4.1-1.3c0,0,0-0.1-0.1-0.1c-3.6-7.2-7.3-10.2-11.9-10.5l-0.5,0c-3-0.1-4.6,0.2-12.4,2.9l-4.9,1.7
							c-8.9,3.2-15.2,4.7-22.5,4.9c-9.5,0.3-19.1-2-29.1-7.5c-15.6-8.5-29.7-21.4-43.5-38.6c-3.9-4.8-7.7-9.9-11.8-15.7l-1.8-2.6
							l-9.6-13.7l-0.9-1.3c-6.2-8.7-9.6-12.7-11.9-13.7l-0.1,0c-8.5-3.3-22.5-12.4-32.9-22.4C2.6,56.3-4.8,41.2-1.7,26.1
							C1.6,9.8,14.8-0.9,32-2.5z"/>
					</g>
					<path id="Path-3" class="st0" d="M240.5,27.3c11.1-21.4,29.1-32,54.8-29.6c10.8,1,19.5,4,26.1,9c1.3,1,1.6,2.9,0.6,4.2
						c-1,1.3-2.9,1.6-4.2,0.6l0,0c-5.7-4.2-13.3-6.9-23.1-7.8c-23.2-2.2-38.9,7.1-48.9,26.4c-8.1,15.6-12.1,36.9-13.2,63.4l0,1.1
						c-0.3,7.9-0.3,14.2-0.2,24.3l0.1,7.6c0.1,10,0,14.2-0.5,19.4l0,0.3c-0.7,7.4-3,14.5-6.7,20.9c-3.3,5.4-7.4,10.4-12.2,14.7
						l-0.6,0.6c-9.8,9.1-9.6,19.5-1.8,35.9l0.8,1.6c1,2,2,4,3.6,7.1l2.3,4.5c2.3,4.2,4.3,8.5,6,12.9c2.4,6.4,3.4,11.8,2.6,16.8
						l-0.1,0.9c-0.6,3.3-2.2,11.7-2.4,12.7c-3.1,16-3.7,32.5-1.9,48.7c2.6,24.4,10.4,51.8,24.6,83c0.7,1.5,0,3.3-1.5,4
						c-1.5,0.7-3.3,0-4-1.5c0,0,0,0,0,0c-14.5-31.7-22.4-59.7-25.1-84.8c-1.9-16.5-1.3-33.1,1.8-49.4l0.3-1.5
						c0.4-2.3,2.1-10.9,2.4-12.9c0.6-3.7-0.1-8-2.1-13.3l-0.4-1c-1.7-4.3-3.7-8.6-6-12.7l-2.8-5.3c-1.4-2.8-2.4-4.7-3.4-6.7
						c-4.1-8.6-6.3-15.4-6.5-21.9c-0.2-7.9,2.6-15,9-21.1l0.4-0.4c4.5-4.1,8.5-8.8,11.7-14c3.2-5.4,5.2-11.5,5.8-17.8l0.1-1.2
						c0.5-4.8,0.6-8.9,0.5-18.5l-0.2-9.8c-0.1-8.4-0.1-14.2,0.1-21.1l0-1.2C227.6,66.5,231.8,44.1,240.5,27.3z"/>
					<path id="Path-4" class="st0" d="M319.6,410.6h-49c-1.7,0-3-1.3-3-3c0-0.1,0-0.1,0-0.2c2.4-32.5,6.6-59.8,13.1-83.3
						c2.1-7.6,4.4-14.9,6.9-21.6c2.4-6.6,5.2-13,8.4-19.2c2.9-5.8,6.2-11.4,9.9-16.8c3.5-5,7.3-9.8,11.5-14.2
						c0.6-0.6,1.3-0.9,2.1-0.9c1.6,0,3,1.3,3,2.9c0,0,0,0,0,0.1v153.3C322.6,409.3,321.3,410.6,319.6,410.6z M316.6,262.2l-0.1,0.2
						c-12.6,15.4-22.7,36.7-30,63.3c-6.1,22.4-10.3,48.2-12.6,78.8l0,0.1h42.8V262.2z"/>
				</g>
				<path id="pot_2_" class="st1" d="M318.7,404.6c1.7,0,3,1.3,3,3c0,1.6-1.2,2.9-2.8,3l-0.2,0h-121c-6.1-0.1-11.2,4.7-11.3,10.8
					c0,0.8,0,1.5,0.2,2.2l25.9,115.6c0.4,1.6-0.6,3.2-2.3,3.6c-1.6,0.4-3.1-0.6-3.5-2.1l0-0.2l-25.8-115.3
					c-2.4-10.5,5.7-20.5,16.6-20.7h0.3H318.7z"/>
			</g>
			<g id="whiteboard_2_" transform="translate(434)">
				<path id="shape_15_" class="st1" d="M763.9,634.8H0.6c-1.7,0-3-1.3-3-3V0.4c0-1.7,1.3-3,3-3h763.3c1.7,0,3,1.3,3,3v631.4
					C766.9,633.5,765.6,634.8,763.9,634.8z M3.6,3.4v625.4h757.3V3.4H3.6z"/>
				<g id="graph_5_" transform="translate(434 269)">
					<path id="Rectangle" class="st1" d="M43.4,273H0.6c-1.7,0-3-1.3-3-3v-66.8c0-1.7,1.3-3,3-3h42.8c1.7,0,3,1.3,3,3V270
						C46.4,271.7,45.1,273,43.4,273z M3.6,206.2V267h36.8v-60.8H3.6z"/>
					<path id="Rectangle-2" class="st1" d="M110.6,273H67.8c-1.7,0-3-1.3-3-3v-94.9c0-1.7,1.3-3,3-3h42.8c1.7,0,3,1.3,3,3V270
						C113.6,271.7,112.3,273,110.6,273z M70.8,178.1V267h36.8v-88.9H70.8z"/>
					<path id="Rectangle-3" class="st1" d="M177.7,273h-42.8c-1.7,0-3-1.3-3-3V130.7c0-1.7,1.3-3,3-3h42.8c1.7,0,3,1.3,3,3V270
						C180.7,271.7,179.4,273,177.7,273z M137.9,133.7L137.9,133.7V267h36.8V133.7H137.9z"/>
					<rect id="Rectangle-4" x="202" y="92.3" class="st0" width="42.8" height="177.7"/>
					<path id="arrow_1_" class="st0" d="M259.3,1.1c-0.7-0.6-1.5-0.8-2.4-0.7l-28,4.5c-1.6,0.3-2.7,1.8-2.5,3.4
						c0.3,1.6,1.8,2.7,3.4,2.5l18.3-2.9l-54.6,63.4l-22.3-21.4c-0.6-0.6-1.4-0.9-2.2-0.8c-0.8,0-1.6,0.4-2.1,1l-73.2,85l-21.2-15.9
						c-1.2-0.9-2.8-0.8-3.9,0.2l-65.7,63c-1.2,1.1-1.2,3-0.1,4.2c0.6,0.6,1.4,0.9,2.2,0.9c0.8,0,1.5-0.3,2.1-0.8L71,125.4l21.5,16.1
						c1.3,0.9,3,0.8,4.1-0.4l72.9-84.7l22.3,21.4c0.6,0.6,1.4,0.9,2.2,0.8c0.8,0,1.6-0.4,2.1-1l58.3-67.7L254,33.6
						c0,1.6,1.3,3,2.9,3c0,0,0.1,0,0.1,0l0,0c1.7,0,3-1.3,3-3l0.5-30.3C260.4,2.5,259.9,1.7,259.3,1.1z"/>
				</g>
				<g id="layout_II_1_" transform="translate(73 381)">
					<g id="lines_8_" transform="translate(0 88)">
						<path id="Path-5" class="st1" d="M188.6-2.1c1.7,0,3,1.3,3,3c0,1.6-1.2,2.9-2.8,3l-0.2,0H4.6c-1.7,0-3-1.3-3-3
							c0-1.6,1.2-2.9,2.8-3l0.2,0H188.6z"/>
						<path id="Path-6" class="st1" d="M140.1,25.9c1.7,0,3,1.3,3,3c0,1.6-1.2,2.9-2.8,3l-0.2,0H4.6c-1.7,0-3-1.3-3-3
							c0-1.6,1.2-2.9,2.8-3l0.2,0H140.1z"/>
						<path id="Path-7" class="st1" d="M96.6,57.3c1.7,0,3,1.3,3,3c0,1.6-1.2,2.9-2.8,3l-0.2,0h-96c-1.7,0-3-1.3-3-3
							c0-1.6,1.2-2.9,2.8-3l0.2,0H96.6z"/>
						<path id="Path-8" class="st1" d="M289.2-2.1c1.7,0,3,1.3,3,3c0,1.6-1.2,2.9-2.8,3l-0.2,0h-79.4c-1.7,0-3-1.3-3-3
							c0-1.6,1.2-2.9,2.8-3l0.2,0H289.2z"/>
					</g>
					<g id="oragne_bar">
						<path id="Path-9" class="st0" d="M91.9,27.7l21.2,20V7.4L91.9,27.7z"/>
						<path id="Path-10" class="st0" d="M61.4,48.7l21.8-20.9L61.4,7.3V48.7z"/>
						<path id="Path-11" class="st0" d="M169.5,0.3h-49l24.7,23.3L169.5,0.3z"/>
						<path id="Path-12" class="st0" d="M87.5,31.9L62.7,55.8h50.2L87.5,31.9z"/>
						<path id="Path-13" class="st0" d="M119.1,48.7l21.8-20.9L119.1,7.3V48.7z"/>
						<path id="Path-14" class="st0" d="M0.6,4.5v47.1l24.8-23.8L0.6,4.5z"/>
						<path id="Path-15" class="st0" d="M29.8,31.9L5,55.8h50.2L29.8,31.9z"/>
						<path id="Path-16" class="st0" d="M54,0.3H5l24.8,23.3L54,0.3z"/>
						<path id="Path-17" class="st0" d="M170.8,47.7V7.4l-21.2,20.3L170.8,47.7z"/>
						<path id="Path-18" class="st0" d="M34.2,27.7l21.2,20V7.4L34.2,27.7z"/>
						<path id="Path-19" class="st0" d="M145.3,31.9l-24.8,23.9h50.2L145.3,31.9z"/>
						<path id="Path-20" class="st0" d="M111.7,0.3h-49l24.8,23.3L111.7,0.3z"/>
						<path id="Path-21" class="st0" d="M228.5,0.3h-51.7v55.5h51.7V0.3z"/>
						<path id="Path-22" class="st0" d="M289.2,0.3h-54.7v55.5h54.7V0.3z"/>
						<path id="Path-23" class="st0" d="M170.6,55.8c0.1,0.1,0.1,0.1,0.2,0.1v-0.1H170.6z"/>
					</g>
				</g>
				<g id="layout_3_" transform="translate(538 121)">
					<path id="Rectangle-5" class="st1" d="M113.1,90.9h-31c-1.7,0-3-1.3-3-3v-31c0-1.7,1.3-3,3-3h31c1.7,0,3,1.3,3,3v31
						C116.1,89.6,114.8,90.9,113.1,90.9z M85.1,59.9v25h25v-25H85.1z"/>
					<path id="Rectangle-6" class="st1" d="M119.2,39.4H0.7c-1.7,0-3-1.3-3-3V0.7c0-1.7,1.3-3,3-3h118.5c1.7,0,3,1.3,3,3v35.7
						C122.2,38.1,120.9,39.4,119.2,39.4z M3.7,3.7v29.7h112.5V3.7H3.7z"/>
					<path id="Path-24" class="st1" d="M61,84.9c1.7,0,3,1.3,3,3c0,1.6-1.2,2.9-2.8,3l-0.2,0H0.7c-1.7,0-3-1.3-3-3
						c0-1.6,1.2-2.9,2.8-3l0.2,0H61z"/>
					<path id="Path-25" class="st1" d="M61,70.2c1.7,0,3,1.3,3,3c0,1.6-1.2,2.9-2.8,3l-0.2,0H0.7c-1.7,0-3-1.3-3-3
						c0-1.6,1.2-2.9,2.8-3l0.2,0H61z"/>
					<path id="Path-26" class="st1" d="M61,55.6c1.7,0,3,1.3,3,3c0,1.6-1.2,2.9-2.8,3l-0.2,0H0.7c-1.7,0-3-1.3-3-3
						c0-1.6,1.2-2.9,2.8-3l0.2,0H61z"/>
				</g>
				<g id="lines_7_" transform="translate(441 292)">
					<path id="Path-27" class="st1" d="M165.2-2.3c1.7,0,3,1.3,3,3c0,1.6-1.2,2.9-2.8,3l-0.2,0H0.5c-1.7,0-3-1.3-3-3
						c0-1.6,1.2-2.9,2.8-3l0.2,0H165.2z"/>
					<path id="Path-28" class="st1" d="M97.7,11.8c1.7,0,3,1.3,3,3c0,1.6-1.2,2.9-2.8,3l-0.2,0H0.5c-1.7,0-3-1.3-3-3
						c0-1.6,1.2-2.9,2.8-3l0.2,0H97.7z"/>
				</g>
				<g id="circle_graph_4_" transform="translate(69 71)">
					<path id="Path-29" class="st0" d="M203.5,136.3l113-57.3c9,17.8,13.7,37.4,13.7,57.3c0,69.5-57.2,126.7-126.7,126.7
						c-38.6,0-75.1-17.6-99.1-47.8L203.5,136.3z"/>
					<path id="Path-30" class="st1" d="M405.3,36.6c1.7,0,3,1.3,3,3c0,1.6-1.2,2.9-2.8,3l-0.2,0H300.6c-1.7,0-3-1.3-3-3
						c0-1.6,1.2-2.9,2.8-3l0.2,0H405.3z"/>
					<path id="Path-31" class="st1" d="M405.3,50.7c1.7,0,3,1.3,3,3c0,1.6-1.2,2.9-2.8,3l-0.2,0h-55.8c-1.7,0-3-1.3-3-3
						c0-1.6,1.2-2.9,2.8-3l0.2,0H405.3z"/>
					<path id="Path-32" class="st1" d="M405.3,64.9c1.7,0,3,1.3,3,3c0,1.6-1.2,2.9-2.8,3l-0.2,0h-37.1c-1.7,0-3-1.3-3-3
						c0-1.6,1.2-2.9,2.8-3l0.2,0H405.3z"/>
					<path id="Path-33" class="st1" d="M408.4,148.9c1.7,0,3,1.3,3,3c0,1.6-1.2,2.9-2.8,3l-0.2,0H273.3c-1.7,0-3-1.3-3-3
						c0-1.6,1.2-2.9,2.8-3l0.2,0H408.4z"/>
					<path id="Path-34" class="st1" d="M408.4,160c1.7,0,3,1.3,3,3c0,1.6-1.2,2.9-2.8,3l-0.2,0h-25.3c-1.7,0-3-1.3-3-3
						c0-1.6,1.2-2.9,2.8-3l0.2,0H408.4z"/>
					<g id="Group" transform="translate(46 27)">
						<path id="Path-35" class="st1" d="M80.7-2.1c1.7,0,3,1.3,3,3c0,1.6-1.2,2.9-2.8,3l-0.2,0H0.2c-1.7,0-3-1.3-3-3
							c0-1.6,1.2-2.9,2.8-3l0.2,0H80.7z"/>
						<path id="Path-36" class="st1" d="M16.3,9.3c1.7,0,3,1.3,3,3c0,1.6-1.2,2.9-2.8,3l-0.2,0H0.2c-1.7,0-3-1.3-3-3
							c0-1.6,1.2-2.9,2.8-3l0.2,0H16.3z"/>
					</g>
					<path id="Path-37" class="st0" d="M84.4,220.6L84.4,220.6c-0.9,0-1.8-0.4-2.4-1.1c-17.3-21.7-26.8-48.5-27-76.2
						c0-1.7,1.3-3,3-3c0,0,0,0,0,0l121.9-1.3h0c1.3,0,2.4,0.8,2.8,2c0.4,1.2,0,2.6-1,3.3L86.3,220C85.7,220.4,85.1,220.6,84.4,220.6
						z M171.2,145l-110.1,1.2l0,0.4c0.9,24,9.1,47.2,23.6,66.4l0.2,0.3L171.2,145z"/>
					<path id="Path-38" class="st0" d="M63.2,135.7c-1.7,0-3-1.3-3-3v-1.6c0-15.5,2.8-30.8,8.4-45.2c0.5-1.2,1.6-1.9,2.8-1.9
						c0.4,0,0.7,0.1,1.1,0.2l113.6,44.1c1.5,0.6,2.3,2.3,1.7,3.9c-0.4,1.1-1.5,1.9-2.8,1.9L63.2,135.7L63.2,135.7z M73.1,90.9
						l-0.3,0.9c-4.2,12-6.4,24.6-6.6,37.2l0,0.6l103.3-1.4L73.1,90.9z"/>
					<path id="Path-39" class="st0" d="M208.1,122.5c-1.1,0-2.1-0.6-2.6-1.5c-0.5-0.9-0.5-2.1,0-3l60.1-105.7
						c0.8-1.4,2.6-1.9,4.1-1.1c0,0,0,0,0,0c10.7,6.1,20.5,13.7,29,22.7c8.5,8.9,15.6,19.1,21,30.2c0.7,1.5,0.1,3.3-1.4,4
						l-108.9,54.1C209,122.4,208.6,122.5,208.1,122.5z M269.3,17.9l-53.7,94.5L313,64.1l-0.2-0.4c-10-18.8-24.9-34.6-43.1-45.6
						L269.3,17.9z"/>
					<path id="Path-40" class="st1" d="M254.2,16.6C236,6.2,215.5,0.6,194.5,0.5h-2C142.8,1,98.4,31.6,80.3,77.8l113.4,44.5
						L254.2,16.6z"/>
					<path id="Path-41" class="st1" d="M80.7,160.4c1.7,0,3,1.3,3,3c0,1.6-1.2,2.9-2.8,3l-0.2,0H0.2c-1.7,0-3-1.3-3-3
						c0-1.6,1.2-2.9,2.8-3l0.2,0H80.7z"/>
					<path id="Path-42" class="st1" d="M29.3,171.8c1.7,0,3,1.3,3,3c0,1.6-1.2,2.9-2.8,3l-0.2,0H0.2c-1.7,0-3-1.3-3-3
						c0-1.6,1.2-2.9,2.8-3l0.2,0H29.3z"/>
				</g>
			</g>
			<g id="man_7_" transform="translate(1052 110)">
				<g id="hand_II_7_" transform="translate(0 463)">
					<path id="Path-43" class="st1" d="M61.4,4.4c1.7-0.1,3.1,1.2,3.2,2.8c0.1,1.6-1.1,3-2.8,3.1c-6.4,0.4-12.8,1.1-19.2,2.2
						l-8.5,1.5l-3.7,0.7c-0.9,0.2-1.8,0.3-2.7,0.5l-1.3,0.2c-9.3,1.8-16,3.3-19.9,4.8c-0.7,0.3-1.4,0.6-2.1,0.9
						c-0.1,0.1-0.2,0.1-0.3,0.2L4,21.5c-0.6,0.9-0.4,1.4,0.9,2.3l0.2,0.1c2.1,1.3,5.8,2,9.7,1.9c1.7-0.1,3,1.2,3.1,2.9
						s-1.2,3-2.9,3.1c-4.9,0.2-9.7-0.8-12.9-2.7c-4.3-2.5-5.8-6.8-3-10.9c0.9-1.4,2.7-2.4,5.4-3.4l0.6-0.2C11.3,12.5,17.6,11,24,9.8
						l2.6-0.5c1.5-0.3,3.1-0.6,4.9-0.9l8.5-1.5C47.1,5.7,54.3,4.9,61.4,4.4z"/>
					<path id="Path-44" class="st1" d="M43.9,61.9c-4.2,0-7.5-0.6-9.8-1.9c-2.2-1.1-3.6-3.2-3.7-5.7l0-0.2c0-0.4,0-0.9,0.1-1.3
						l0-0.2l-0.3,0c-2.7-0.1-5.4-0.9-7.8-2.1c-2-0.9-3.6-2.5-4.6-4.5l-0.1-0.2c-0.3-1.1-0.2-2.3,0.3-3.3l0-0.1l-0.2,0
						c-1.2,0.2-2.4,0.2-3.7,0.2c-1,0-1.9-0.1-2.9-0.2l-0.3-0.1c-1.9-0.3-3.6-1.5-4.6-3.2c-0.9-1.9-0.7-4.4,0.7-7.1
						c1.4-2.9,7.8-7.4,20.2-14.1l1.9-1c8.5-4.6,16.8-8.5,20.2-9.6l0.6-0.2c2.8-0.8,11.7-2.3,27.2-4.7L80.7,2c4.2-0.6,8.7-1.3,13.4-2
						L106-1.8l5.6-0.8c1.5-0.2,2.9,0.7,3.3,2.1l0,0.2l14.1,58.4c0.4,1.6-0.6,3.2-2.2,3.6c-0.2,0-0.4,0.1-0.5,0.1l-0.2,0H46.7l-0.3,0
						C45.5,61.9,44.7,61.9,43.9,61.9z M65,34.2c0.3,0,0.7,0,1,0.1l0.1,0c1.6,0.4,2.6,2,2.3,3.6c-0.2,1.1-1,1.9-2.1,2.2l-0.9,0.3
						l-1.6,0.5c-0.8,0.2-1.5,0.5-2.2,0.7l-0.6,0.2c-0.9,0.3-1.8,0.6-2.7,0.9l-1,0.3L54,44.2l-6.9,2.8c-2.1,0.8-3.4,1.4-4.8,1.9
						l-0.5,0.2c-3,1-5.3,3.5-5.3,4.9c0,0.3,0.2,0.6,1.1,1c2,0.7,4.1,1,6.1,0.9c0.7,0,1.4,0,2.2-0.1l0.5,0l0.2,0h75.8l-12.6-52l-7,1
						L95,5.9c-3.6,0.5-6.7,1-9.6,1.4L76,8.8c-13.5,2.1-21.8,3.6-24.2,4.2l-0.2,0.1c-3.9,1.1-13.7,6.1-21.6,10.5
						c-7.4,4.1-16.4,9.6-17.3,11.3c-0.2,0.5-0.4,0.9-0.6,1.4l0,0.2l0,0.1l0.2,0l0.2,0.1c0.6,0.1,1.2,0.2,1.8,0.2
						c3.3-0.2,6.6-0.7,9.9-1.5l1.2-0.3l0.1,0c2.9-2,5.8-3.8,9-5.4l0.4-0.2c1.8-0.9,3.7-1.8,5.8-2.8c3.7-1.6,7.7-3.3,12.1-5l1.2-0.5
						c0.6-0.2,1.1-0.4,1.7-0.6L57,20l1.2-0.4c1.6-0.5,3.3,0.3,3.8,1.8c0.5,1.5-0.2,3.2-1.7,3.8l-1.6,0.6l-1,0.4
						c-1,0.3-1.9,0.7-2.9,1.1c-4.3,1.6-8.2,3.2-11.8,4.8c-2,0.9-3.9,1.8-5.6,2.6c-4,1.9-7.7,4.3-11.1,7.2c-0.8,0.7-1.5,1.4-2.2,2.2
						L24,44.2l0.2,0.1c0.8,0.6,1.8,1.1,2.7,1.5c1.3,0.5,2.8,0.8,4.2,0.8c1,0,2-0.2,2.9-0.5l0.1,0l0.3-0.2c3.9-2.2,7.9-4.1,12.1-5.6
						l0.7-0.3c2-0.8,4.3-1.6,6.6-2.4l1.4-0.5l1.4-0.6C61.3,34.8,63.5,34.2,65,34.2z"/>
				</g>
				<path id="body_5_" class="st1" d="M353,305.6c0.9-26.2-13.4-50.5-36.7-62.4l-37.7-20.3l-4.1,18.6c-4.5,20.2-24.5,33-44.7,28.5
					l-4.9-1.1c-20.2-4.5-33-24.5-28.5-44.7l6.3-28.3c-7.2-5-12.9-11.8-15.6-20.6c-0.2-0.6-0.3-1.2-0.5-1.7L149,153.4l-0.1,291.7
					l102-20.9l-4.9-68.5c-0.1-1.7,1.2-3.1,2.8-3.2c1.6-0.1,3,1.1,3.2,2.8l5.1,71.1c0.1,1.5-0.9,2.9-2.4,3.2l-105.8,21.7v0.8
					L91,462.7c11.4,2.2,24,58.7,24,58.7h205.4c19.8,0,35.9-16.1,35.9-36c0-0.2,0-0.3,0-0.5L353,305.6z"/>
				<g id="head_10_" transform="translate(158)">
					<path id="neck_5_" class="st1" d="M126.3,179.9c0.4-1.6,2-2.6,3.6-2.3c1.5,0.3,2.5,1.8,2.3,3.3l0,0.2l-12.8,61
						c-4.8,21.6-26,35.3-47.6,30.9l-0.7-0.1l-4.9-1.1c-21.6-4.8-35.3-26-30.9-47.6l0.1-0.7l6.3-28.3c0.4-1.6,2-2.6,3.6-2.3
						c1.6,0.3,2.6,1.8,2.3,3.4l0,0.2l-6.3,28.3c-4.1,18.4,7.4,36.6,25.7,41l0.6,0.1l4.9,1.1c18.4,4.1,36.6-7.3,41-25.6l0.1-0.6
						L126.3,179.9z"/>
					<path id="face_11_" class="st1" d="M79.7,209.4L79.7,209.4c-8.8,0-17.6-1.7-25.8-5.1c-6.6-2.6-12.6-6.5-17.6-11.4
						c-4.8-4.7-8.3-10.4-10.3-16.8c-2-6.8-2.9-13.8-2.9-20.9c0-10.3,1.2-20.6,3.4-30.6c0.7-3.3,1.5-6.6,2.3-9.8
						c0.1-0.4,0.2-0.7,0.3-1l0.3-0.9l0.2-0.9l0.3-0.9v0l0-0.1c3.5-11.8,7.6-23.4,12.3-34.8c4.5-11,9.7-21.6,15.7-31.9l0.7-1.1
						l0.3-0.5c3.6-6.1,8.7-11.2,14.9-14.7c6-3.2,12.8-4.8,19.6-4.6c2,0,4,0.1,6,0.3c6.3,0.7,12.5,2.3,18.5,4.5
						c3.2,1.2,6.3,2.5,9.3,4.1l1,0.5c6.5,3.4,12.6,7.5,18.1,12.4c4.8,4.3,9.1,9.2,12.5,14.6c3.2,5.1,5.7,10.7,7.3,16.6
						c1.6,5.9,2.5,12.1,2.5,18.2c0,8.8-1.3,17.6-3.9,26c-0.9,2.8-1.8,5.6-2.9,8.2c-0.7,1.8-1.3,3-1.6,3.7l-0.2,0.3l-2.7,5.2
						c-0.4,0.7-0.8,1.4-1.2,2.2l-1.8,3.3c-3.4,6.4-6.8,12.3-9.8,17.7c-0.4,0.8-0.8,1.4-1.1,2l-1.4,2.5
						c-6.5,11.3-11.2,18.5-14.2,22.1l-0.3,0.4c-4.6,5.4-8.8,9.6-14.2,12.7c-4.8,2.8-10.7,4.8-20.4,6.9l-1.2,0.3
						C87.6,209,83.7,209.4,79.7,209.4z M35.6,112.8L35.6,112.8c-0.5,2.1-2,7.6-2.9,12l-0.2,0.8l-0.3,1.4c-2,9.3-3,18.7-3,28.2
						c-0.1,6.5,0.8,12.9,2.6,19.2c3.3,10.8,11.8,19.2,24.4,24.4c7.5,3,15.5,4.6,23.6,4.6c3.5,0,7-0.3,10.4-1.1
						c17.7-3.9,22.9-6.6,32.2-17.6l0.8-0.9c2.8-3.4,7.5-10.7,13.8-21.7l1.1-1.9l1.1-1.9c3.3-5.8,6.9-12.4,10.7-19.4l0.4-0.8
						c0.8-1.5,1.6-3,2.3-4.3l1.9-3.5l0.3-0.6c0.1-0.1,0.1-0.3,0.2-0.5l0.3-0.7c0.2-0.4,0.3-0.8,0.5-1.1l0.3-0.8c1-2.4,1.9-5,2.7-7.6
						c2.4-7.8,3.7-16,3.6-24.2c-0.2-24.4-12.7-43.4-37.3-56.5c-3.1-1.6-6.3-3.1-9.6-4.3c-5.5-2.1-11.2-3.5-17-4.2
						c-1.8-0.2-3.6-0.3-5.4-0.3c-13,0-23,5.7-29.7,16.9L63,47.5C52.4,65.7,42.7,88.9,35.6,112.8L35.6,112.8L35.6,112.8z"/>
					<path id="hair_II_1_" class="st1" d="M32.8,111.9c5.9-20,15.3-45.3,28.3-67.1c0.6-1,1.2-2,1.9-2.9
						c-10.5-8.2-27.6,8.7-39.4,43.6c-6.1,18-22.7,27.1-22.7,27.1c12.7,11.1,24.2,6.3,31.7,0C32.7,112.2,32.7,111.9,32.8,111.9z"/>
					<path id="nose_9_" class="st1" d="M59.6,99.3c0.6-1.5,2.4-2.3,3.9-1.7c1.5,0.6,2.2,2.2,1.7,3.7l-0.1,0.2l-12.4,31l8.2,3
						c1.5,0.6,2.3,2.2,1.8,3.7l-0.1,0.2c-0.6,1.5-2.2,2.3-3.7,1.8l-0.2-0.1l-11.1-4.1c-1.5-0.6-2.3-2.2-1.8-3.8l0.1-0.2L59.6,99.3z"
						/>
					
						<ellipse id="eye_II_13_" transform="matrix(0.394 -0.9191 0.9191 0.394 -58.4706 104.6494)" class="st1" cx="50.1" cy="96.7" rx="5.5" ry="3.5"/>
					
						<ellipse id="eye_13_" transform="matrix(0.2155 -0.9765 0.9765 0.2155 -44.6267 165.6499)" class="st1" cx="80.8" cy="110.6" rx="5.5" ry="3.5"/>
					<path id="brow_II_9_" class="st1" d="M92.7,88.9c0.3-1.6,1.9-2.7,3.5-2.4c4.2,0.8,8,3,10.8,6.2c1.2,1.4,2.2,2.9,2.9,4.6
						c0.3,0.7,0.6,1.5,0.8,2.3c0.4,1.6-0.5,3.2-2.2,3.7c-1.5,0.4-3.1-0.5-3.6-2L105,101c-0.1-0.4-0.3-0.8-0.4-1.1
						c-0.5-1.2-1.2-2.2-2-3.2c-1.9-2.2-4.6-3.7-7.5-4.3C93.4,92.1,92.3,90.5,92.7,88.9z"/>
					<path id="brow_9_" class="st1" d="M53.2,67.2c3.6-0.3,7.2,1,10.7,3.1c1.5,0.9,2.9,1.9,4.2,3c1.2,1.1,1.3,3,0.1,4.2
						c-1.1,1.2-3,1.3-4.2,0.2l-0.1-0.1c-0.2-0.1-0.4-0.3-0.7-0.6c-0.8-0.6-1.6-1.1-2.4-1.6c-2.1-1.4-4.6-2.2-7.2-2.2
						c-1,0.1-1.9,0.4-2.8,0.9l-0.3,0.2c-1.4,1-3.2,0.6-4.2-0.7c-0.9-1.3-0.6-3.2,0.7-4.1C48.9,68.1,51,67.3,53.2,67.2z"/>
					<path id="cap_5_" class="st0" d="M224.3,112.9l-33.9-17.2c4.3-25.2,1.6-64.2-45.7-86.2c-74-34.4-101,39.7-101,39.7l169.5,85.5
						c6,3,13.4,0.6,16.5-5.4c3.1-5.9,0.7-13.2-5.2-16.3C224.4,113,224.4,112.9,224.3,112.9z"/>
					<path id="mouth_9_" class="st1" d="M79.3,153.5c1.2,1.1,1.4,3,0.3,4.2c0,0,0,0,0,0c-0.3,0.4-0.7,0.7-1.1,1.1
						c-0.9,0.8-1.8,1.4-2.8,2c-6.4,3.8-14.4,4.3-23.6-0.5c-1.5-0.8-2.1-2.6-1.3-4s2.6-2.1,4-1.3l0,0c7.3,3.8,13.2,3.4,17.8,0.7
						c0.7-0.4,1.3-0.9,1.9-1.4l0.2-0.2l0.3-0.3C76.1,152.6,78,152.5,79.3,153.5C79.3,153.5,79.3,153.5,79.3,153.5z"/>
					<path id="hair_9_" class="st1" d="M186.5,121.2L115,85.1c-8.3,25.9-18.7,77.8,25.6,91.5c0,0,34.6,11.5,44.6,0.1
						c0,0-23.8-17.4-18.4-31.7c0,0,24.3,36,52.9,16.9C219.6,161.9,185.9,151.1,186.5,121.2z"/>
				</g>
			</g>
			<path id="line_8_" class="st1" d="M1580,628.7c1.7,0,3,1.3,3,3c0,1.6-1.2,2.9-2.8,3l-0.2,0H0.4c-1.7,0-3-1.3-3-3
				c0-1.6,1.2-2.9,2.8-3l0.2,0H1580z"/>
		</g>
	</g>
</g>
</svg>
