<svg id="Layer_1" data-name="Layer 1" xmlns="http://www.w3.org/2000/svg" viewBox="0 0 627.15 225.82"><defs><style>.cls-1{fill:#323232;}.cls-2{fill:#c70d3a;}</style></defs><path class="cls-1" d="M228.5,652.93h3.2v28.34h-3.2Z" transform="translate(-226.43 -455.88)"/><path class="cls-1" d="M277.91,652.86v28.85h-.15l-19.43-21.57V681.3h-3.2V652.49h.18L274.72,674V652.86Z" transform="translate(-226.43 -455.88)"/><path class="cls-1" d="M324.13,652.86v28.85H324l-19.42-21.57V681.3h-3.2V652.49h.18L320.93,674V652.86Z" transform="translate(-226.43 -455.88)"/><path class="cls-1" d="M346.07,667.12a14.57,14.57,0,1,1,14.54,14.52A14.61,14.61,0,0,1,346.07,667.12Zm25.9,0a11.33,11.33,0,1,0-11.36,11.3A11.39,11.39,0,0,0,372,667.1Z" transform="translate(-226.43 -455.88)"/><path class="cls-1" d="M418.19,652.93l-12.91,28.78h-.38l-12.85-28.78h3.39l9.63,22,9.67-22Z" transform="translate(-226.43 -455.88)"/><path class="cls-1" d="M450.52,676.61H435.05L433,681.27h-3.46l13.1-28.78H443l13.11,28.78h-3.48Zm-1.23-2.78-6.49-14.57-6.5,14.57Z" transform="translate(-226.43 -455.88)"/><path class="cls-1" d="M491,656.1h-8.21v25.17H479.6V656.1h-8.25v-3.17H491Z" transform="translate(-226.43 -455.88)"/><path class="cls-1" d="M512.35,652.93h3.2v28.34h-3.2Z" transform="translate(-226.43 -455.88)"/><path class="cls-1" d="M562.59,652.93l-12.9,28.78h-.39l-12.85-28.78h3.4l9.63,22,9.67-22Z" transform="translate(-226.43 -455.88)"/><path class="cls-1" d="M586.68,656.08v9h11.65v3.2H586.68v9.85h13.45v3.18H583.48V652.93h16.65v3.15Z" transform="translate(-226.43 -455.88)"/><path class="cls-1" d="M677.29,668.28a13.12,13.12,0,0,1-13.43,13.37,14.56,14.56,0,1,1-.13-29.11A16.17,16.17,0,0,1,674,656.8l-1.79,2.65a13.11,13.11,0,0,0-8.49-3.71,11.34,11.34,0,1,0,.26,22.68c5.54,0,9.9-3.71,9.9-8.72a4.79,4.79,0,0,0,0-.56H663.7v-2.88h13.46A16.19,16.19,0,0,1,677.29,668.28Z" transform="translate(-226.43 -455.88)"/><path class="cls-1" d="M715.65,681.27l-7.91-11.06h-5.29v11.06h-3.2l0-28.34h8.37a9.31,9.31,0,0,1,9.54,9,8.3,8.3,0,0,1-6,7.87l8.42,11.43Zm-7.95-13.75a5.73,5.73,0,1,0,0-11.42h-5.27v11.4Z" transform="translate(-226.43 -455.88)"/><path class="cls-1" d="M738.85,667.12a14.57,14.57,0,1,1,14.54,14.52A14.61,14.61,0,0,1,738.85,667.12Zm25.9,0a11.33,11.33,0,1,0-11.36,11.3A11.39,11.39,0,0,0,764.75,667.1Z" transform="translate(-226.43 -455.88)"/><path class="cls-1" d="M789.62,670.26V652.93h3.22v17.32c0,4.76,3.1,8.22,7.28,8.22s7.28-3.48,7.28-8.22V652.93h3.21v17.33c0,6.61-4.46,11.45-10.49,11.45S789.62,676.87,789.62,670.26Z" transform="translate(-226.43 -455.88)"/><path class="cls-1" d="M833.75,652.93h9c5.49,0,10,4.11,10,9.14,0,4.82-4.48,8.74-10,8.74H837v10.46h-3.2ZM849.5,662c0-3.27-3-5.94-6.77-5.94H837v11.54l5.78,0C846.46,667.68,849.5,665.15,849.5,662Z" transform="translate(-226.43 -455.88)"/><path class="cls-1" d="M226.43,456.76H335v38.38H266.76v21.49H319.2V555H266.76v21.49H335v38.28H226.43Z" transform="translate(-226.43 -455.88)"/><path class="cls-1" d="M348.69,614.58v-98.1h38.48v98.1Z" transform="translate(-226.43 -455.88)"/><path class="cls-1" d="M490.2,456.18a91,91,0,0,1,59.66,24.31l2.44,2.44-28.8,27.35L521,507.93c-9.57-8.88-20.41-13.18-33.21-13.18-13.08,0-23.92,4-33.2,12.11s-13.77,17.68-13.77,29.1,4.49,20.9,13.77,29.1,20,12,33.2,12c17.39,0,31.94-8.6,39.55-19.44h-45V522.78H573.4l.29,3c2.35,29.68-8,51.17-24,66.5-17.19,15.53-38.09,23.44-62.21,23.44-24.32,0-45.21-7.82-62.21-23.34C409,577,400.84,558,400.84,536c0-21.87,8.2-40.82,24.41-56.54,17-15.63,37.89-23.54,62.21-23.54H490Z" transform="translate(-226.43 -455.88)"/><path class="cls-1" d="M587.66,457.15H626v59.57h52.63V457.15h38.38V614.58H678.67V554.91H626v59.67H587.66Z" transform="translate(-226.43 -455.88)"/><path class="cls-1" d="M730.72,457.15H853.57v38.19H813.44l1.46,119.24H771.45L771,495.34H730.72Z" transform="translate(-226.43 -455.88)"/><circle class="cls-2" cx="141.5" cy="24.51" r="23.25"/></svg>