<?xml version="1.0" encoding="utf-8"?>
<!-- Generator: Adobe Illustrator 25.2.1, SVG Export Plug-In . SVG Version: 6.00 Build 0)  -->
<svg version="1.1" id="Layer_1" xmlns="http://www.w3.org/2000/svg" xmlns:xlink="http://www.w3.org/1999/xlink" x="0px" y="0px"
	 viewBox="0 0 1247 711.9" style="enable-background:new 0 0 1247 711.9;" xml:space="preserve">
<style type="text/css">
	.st0{fill:#323232;}
	.st1{fill:#C70D3A;}
	.st2{fill:#FFFFFF;}
	.st3{fill:#0F0F0F;}
</style>
<g id="product_launch_solid_II" transform="translate(2.5)">
	<g id="product_launch_solid_II-2" transform="translate(-3)">
		<g id="product_launch_solid_II-3">
			<path id="flag" class="st0" d="M1035.1,613.9c-12.7,7.1-36.2,15.6-55.6-3.4c-20-19.5-34.3-19.1-41-17.2c-2.1-0.4-4.2,0.6-5.3,2.4
				l-42.1,76.5c-3.3,6-9.7,9.8-16.6,9.8H737.4c-2.7,0-4.9,2.2-4.9,4.9c0,2.7,2.2,4.9,4.9,4.9h137.1c10.5,0,20.1-5.7,25.2-14.9
				l24.6-44.8c9.2,1.2,21.7,5.3,33.4,16.8c22.6,22,49.1,9.6,58.8,3.7c2.4-1.4,4.3-3.5,5.7-5.9l16.5-29.1c0.8-1.2,0.4-2.9-0.8-3.7
				C1037,613.4,1036,613.4,1035.1,613.9z"/>
			<g id="flags" transform="translate(73 466)">
				<path id="Path" class="st0" d="M281.7,59.4c-0.6-1.2-2-1.8-3.2-1.2c-0.1,0-0.1,0.1-0.2,0.1c-0.4,0.2-4.6,2.8-22.9,11.9l-8.4,4.1
					c-39.9,19.2-98.8,43.6-122.7,33.5c-1-0.4-2.1-0.2-2.8,0.6c-0.1,0.1-8.7,9.4-27.5,18.2c-17.3,8.1-47.1,17.3-90.6,15.2
					c-1.3-0.1-2.4,0.9-2.5,2.2c0,0.2,0,0.4,0,0.6c0.2,1.2,1.2,2,2.4,2.1c3.9,0.2,7.6,0.3,11.3,0.3l1.8,11.8c0.2,1.5,1.7,2.6,3.2,2.4
					c0.8-0.1,1.6-0.6,2-1.4l7.6-13.2c5.3-0.3,10.4-0.8,15.3-1.4l2.8,10.2c0.4,1.5,2,2.4,3.6,1.9c0.8-0.2,1.4-0.7,1.7-1.4l6-12.9
					c4.1-0.8,7.9-1.7,11.5-2.6l2.3,8.5c0.4,1.5,2,2.4,3.6,1.9c0.8-0.2,1.4-0.7,1.7-1.4l6.2-13.2c4.2-1.4,8.2-3.1,12.2-5l1.6,5.9
					c0.4,1.5,2,2.4,3.6,1.9c0.8-0.2,1.4-0.7,1.7-1.4l6.2-13.4c5.4-3.2,10.5-7,15-11.3c5.1,1.8,11.3,2.3,18.3,1.9l4.2,10.4
					c0.6,1.4,2.2,2.1,3.6,1.6c0.7-0.3,1.3-0.9,1.6-1.7l4.6-12.1c4.4-0.8,8.9-1.8,13.5-3.1l1.9,8.1c0.3,1.5,1.8,2.4,3.3,2.1
					c0.8-0.2,1.6-0.7,1.9-1.5l6.5-12.8c4.4-1.4,8.8-3,13.2-4.6l1.7,7.3c0.4,1.5,1.9,2.5,3.4,2.1c0.8-0.2,1.4-0.7,1.8-1.3l7.8-13.7
					c3.9-1.6,7.8-3.2,11.7-4.9l1.9,7c0.4,1.5,2,2.4,3.6,1.9c0.8-0.2,1.4-0.7,1.7-1.4l6.2-13.4c4.2-1.9,8.2-3.8,12.1-5.7l1.5,5.7
					c0.4,1.5,2,2.4,3.6,1.9c0.8-0.2,1.4-0.7,1.7-1.4l5.7-12.2c15.5-7.8,18.4-9.6,19.9-10.4C281.9,61.8,282.1,60.5,281.7,59.4z"/>
				<path id="Path-2" class="st0" d="M400.8,24.1c-1-0.4-2.1-0.2-2.8,0.6c-0.1,0.1-8.7,9.4-27.5,18.2c-17.3,8.1-47.1,17.3-90.6,15.2
					c-1.3-0.1-2.4,0.9-2.5,2.2c0,0.2,0,0.4,0,0.6c0.2,1.2,1.2,2,2.4,2.1c3.9,0.2,7.6,0.3,11.3,0.3l1.7,11.6c0.2,1.6,1.7,2.7,3.3,2.4
					c0.9-0.1,1.6-0.7,2.1-1.4l7.4-13c5.3-0.3,10.4-0.8,15.3-1.4l2.7,10c0.4,1.5,2,2.4,3.6,2c0.8-0.2,1.5-0.8,1.8-1.5l5.9-12.7
					c4.1-0.8,7.9-1.7,11.5-2.6l3.2,9.6c0.5,1.5,2.2,2.4,3.7,1.9c0.8-0.3,1.5-0.9,1.8-1.8l5.1-13.9c4.2-1.4,8.2-3.1,12.2-5l1.5,5.7
					c0.4,1.5,2,2.4,3.6,2c0.8-0.2,1.5-0.8,1.8-1.5l6.1-13.1c5.4-3.2,10.5-7,15-11.3"/>
				<path id="Path-3" class="st0" d="M1037.9,80.1c-0.4-1.2-1.8-1.9-3-1.5c-0.1,0-0.1,0-0.2,0.1c-38.5,16.1-79,8-120.3-23.9
					c-31.1-24-50.9-53.3-51.1-53.5c-0.8-1.1-2.3-1.4-3.4-0.7c-1.1,0.8-1.4,2.3-0.7,3.4c5,7.2,10.4,14,16.2,20.5l4.9,23.5
					c0.3,1.6,1.9,2.6,3.4,2.2c0.8-0.2,1.5-0.6,1.9-1.3l4.9-8.3c4.2,4.1,8.7,8.2,13.5,12.2l5.2,18.1c0.4,1.5,2,2.4,3.6,1.9
					c0.7-0.2,1.3-0.6,1.6-1.2l4.6-7.2c4.1,2.9,8.2,5.5,12.4,8l7.2,20.3c0.5,1.5,2.2,2.3,3.7,1.7c0.6-0.2,1.2-0.7,1.5-1.2l6.4-11.2
					c3.9,1.7,7.9,3.1,11.9,4.3l9.4,16.4c0.8,1.4,2.6,1.9,4,1c0.6-0.4,1.1-1,1.3-1.6l3.5-11.7c5.1,0.7,10.2,1.1,15.3,1.1h1.2
					l10.1,13.2c1,1.3,2.8,1.5,4.1,0.5c0.5-0.4,0.8-0.9,1-1.5l4.1-14.3c6.9-1.4,13.7-3.5,20.2-6.2
					C1037.6,82.8,1038.3,81.4,1037.9,80.1z"/>
				<path id="Path-4" class="st1" d="M2.9,141.1c1.6,0,2.9,1.2,3,2.8l0,0.2v98.8c0,1.7-1.3,3-3,3c-1.6,0-2.9-1.2-3-2.8l0-0.2v-98.8
					C-0.1,142.4,1.2,141.1,2.9,141.1z"/>
				<path id="Path-5" class="st1" d="M123.2,107.1c1.6,0,2.9,1.2,3,2.8l0,0.2v131.2c0,1.7-1.3,3-3,3c-1.6,0-2.9-1.2-3-2.8l0-0.2
					V110.1C120.2,108.4,121.5,107.1,123.2,107.1z"/>
				<path id="Path-6" class="st1" d="M279.8,57.3c1.6,0,2.9,1.2,3,2.8l0,0.2v180.8c0,1.7-1.3,3-3,3c-1.6,0-2.9-1.2-3-2.8l0-0.2V60.3
					C276.8,58.6,278.1,57.3,279.8,57.3z"/>
				<path id="Path-7" class="st1" d="M1035.9,77.5c1.6,0,2.9,1.2,3,2.8l0,0.2v162.4c0,1.7-1.3,3-3,3c-1.6,0-2.9-1.2-3-2.8l0-0.2
					V80.5C1032.9,78.8,1034.2,77.5,1035.9,77.5z"/>
			</g>
			<g id="laptop_1_" transform="translate(135 454)">
				<path id="laptop" class="st1" d="M789.9,0.6L427.9,3c-5.5-0.1-10.7,2.8-13.4,7.6L297.7,223.1L0.9,223.3c0,0-5.1,29.8,37.6,31.6
					l640-0.8l125-234.5C808.3,10.7,800.9,0.5,789.9,0.6z"/>
				<path id="screen" class="st2" d="M334.9,222.2l305.7-1.3l94.6-184.3c3.7-7.1-1.2-15.7-8.8-15.6l-277.8,3.4L334.9,222.2z"/>
				<path id="Path-8" class="st2" d="M760,0.8c13.1-0.1,22,12.1,16.5,23.1l-0.2,0.3L652.5,255.5c-0.8,1.5-2.6,2-4.1,1.2
					c-1.4-0.7-2-2.5-1.3-3.9l0.1-0.2L771,21.4c3.6-6.8-2.1-14.7-11-14.6c-1.7,0-3-1.3-3-3S758.3,0.8,760,0.8z"/>
			</g>
			<g id="rocket_3_" transform="translate(373)">
				<path id="Path-9" class="st0" d="M113.2,548.9l33.5,61.6c0.9,1.6,2.9,2.1,4.5,1.2c1-0.6,1.6-1.6,1.6-2.8l-2.2-28
					c0,0,19.6,67.4,46.5,69.1c26.9,1.7,52.7-71,52.7-71l-7.1,30.5c0,1.8,1.4,3.3,3.2,3.3c1.2,0,2.3-0.6,2.9-1.7l35.8-62.2"/>
				<path id="Path-10" class="st0" d="M71.3,310.7c0,0-79.9,108.2-69.6,205H178V308.4L71.3,310.7z"/>
				<path id="Path-11" class="st0" d="M322.5,310.7c0,0,79.9,108.2,69.6,205H215.8V308.4L322.5,310.7z"/>
				<path id="Path-12" class="st2" d="M268.8,515.7c67.7-121.7,60.3-218.3,40.6-284.5c-19.8-66.2-66.2-140-110.3-140
					s-90.5,73.8-110.3,140S60.7,394,128.4,515.7l-18.9,40.8H288L268.8,515.7L268.8,515.7z"/>
				<path id="Path_2_" class="st3" d="M288,559.5H109.5c-1.7,0-3-1.3-3-3c0-0.4,0.1-0.9,0.3-1.3l18.3-39.4l-1.1-2
					c-7.5-13.7-14.2-27.5-20.1-41c-5.7-13.1-10.7-26.6-15.1-40.2c-4.1-12.9-7.5-26.1-10.2-39.4c-2.6-12.8-4.5-25.7-5.6-38.7
					l-0.1-1.6c-0.9-10.6-1.2-21.4-1.1-31.9c0.1-10.3,0.8-20.7,1.9-30.9c1.1-10,2.7-20.2,4.8-30.2c2-9.8,4.5-19.7,7.5-29.6
					c10.4-34.7,27.3-69.6,46.5-95.7c10.9-14.9,22.1-26.4,33.2-34.2c11.4-8.1,22.7-12.2,33.5-12.2s22,4.1,33.5,12.2
					c11.1,7.9,22.3,19.4,33.2,34.2c19.2,26.2,36.1,61.1,46.5,95.7c2.9,9.8,5.4,19.7,7.4,29.5c2,10,3.6,20.1,4.7,30.2
					c1.1,10.2,1.7,20.7,1.8,31c0.1,10.5-0.3,21.3-1.3,32c-1.2,13.1-3,26.1-5.7,39c-2.7,13.4-6.2,26.7-10.4,39.8
					c-4.4,13.8-9.5,27.3-15.2,40.6c-5.9,13.7-12.8,27.6-20.3,41.4l-1.1,2.1l18.5,39.4c0.4,0.9,0.4,2-0.1,2.8
					c-0.5,0.9-1.4,1.4-2.4,1.5L288,559.5z M199.1,94.2c-9.7,0-19.9,3.9-30.6,11.5c-10.4,7.5-21,18.4-31.3,32.5
					c-18.8,25.6-35.4,59.8-45.6,93.9c-12,40.2-16.2,79.6-12.9,120.3c4.3,52.9,21.9,107.3,52.2,161.9c0.5,0.8,0.5,1.8,0.1,2.7
					l-16.9,36.5h169.1L266.1,517c-0.4-0.8-0.4-1.7,0-2.6l0.1-0.2c30.4-54.6,48.1-109.1,52.7-161.9c3.6-40.5-0.6-81.4-12.4-120.3
					c-10.2-34.1-26.8-68.3-45.6-93.9c-10.3-14.1-20.9-25-31.3-32.5C219,98.1,208.8,94.2,199.1,94.2z"/>
				<ellipse id="Oval" class="st0" cx="199.1" cy="281.6" rx="50.4" ry="60"/>
				<ellipse id="Oval-2" class="st0" cx="199.1" cy="358.6" rx="8.4" ry="10"/>
				<ellipse id="Oval-3" class="st0" cx="231.5" cy="358.6" rx="8.4" ry="10"/>
				<ellipse id="Oval-4" class="st0" cx="164.2" cy="358.6" rx="8.4" ry="10"/>
				<ellipse id="Oval-5" class="st2" cx="199.1" cy="275.7" rx="38.1" ry="45.3"/>
				<path id="Oval_2_" class="st3" d="M199.1,324c-5.6,0-11.1-1.3-16.1-3.8c-5-2.5-9.5-6.1-13.1-10.4c-3.8-4.5-6.8-9.8-8.8-15.4
					c-4.3-12.1-4.3-25.4,0-37.5c2-5.6,5-10.8,8.8-15.4c3.6-4.3,8-7.8,13.1-10.4c10.1-5.1,22-5.1,32.1,0c5,2.5,9.5,6.1,13.1,10.4
					c3.8,4.5,6.8,9.8,8.8,15.4c4.3,12.1,4.3,25.4,0,37.5c-2,5.6-5,10.8-8.8,15.4c-3.6,4.3-8,7.8-13.1,10.4
					C210.2,322.7,204.7,324,199.1,324z M199.1,233.4c-19.4,0-35.1,19-35.1,42.3s15.7,42.3,35.1,42.3s35.1-19,35.1-42.3
					C234.2,252.4,218.5,233.4,199.1,233.4z"/>
				<path id="Path-13" class="st0" d="M208,89.5V17.9c1.4-1.9,2.1-4.2,2.1-6.5c0-6.1-4.9-11-11-11s-11,4.9-11,11
					c0,2.3,0.7,4.6,2.1,6.5v71.5c-18.5,3.8-37,19.3-53.9,40.1c22-4.9,44.5-6.8,67-5.4c20.6,1.1,41.1,4,61.2,8.8
					C247,110.5,227.4,93.7,208,89.5z"/>
				<path id="Path-14" class="st0" d="M281.2,169.7c-22.1-7.4-47.5-13.9-81.6-15.2c-34.8-1.3-61.2,6.5-82.9,15
					c-9.3,17.2-17.1,35.1-23.1,53.7c26-12.7,57.9-26.1,106.8-25.2c46.5,0.8,78.5,11.1,102.8,21.9
					C297.3,202.6,289.9,185.8,281.2,169.7z"/>
				<path id="Path-15" class="st0" d="M266.2,515.2c3.2-5.8,6.3-11.5,9.2-17.2c-15.3-6.2-37.3-11.4-76.4-11
					c-39.5-0.3-61.6,5-76.9,11.3c2.9,5.6,5.9,11.3,9,17c0,0,34.7-6.8,67.8-6.5C231.5,508.5,266.2,515.2,266.2,515.2z"/>
			</g>
			<g id="clouds" transform="translate(320 601)">
				<path id="cloud_1_" class="st2" d="M503.6,73.9H346.4c0,0-22.6-20.3-12.2-36.9s37.7-20.6,46.6-3.8c0,0,3.9-32.1,36.8-29.6
					c33,2.5,30.4,36.8,30.4,36.8s41.7-29.5,40.6,16.6C488.5,56.9,491.1,73.9,503.6,73.9z"/>
				<path id="cloud_2_" class="st3" d="M503.6,76.9H346.4c-0.7,0-1.5-0.3-2-0.8c-0.3-0.3-1-0.9-2-2l-0.5-0.5c-1.9-2-3.7-4.2-5.4-6.4
					c-2.6-3.5-4.7-7.3-6.3-11.4c-1.4-3.6-1.9-7.4-1.7-11.3c0.3-3.3,1.4-6.4,3.1-9.2c3.2-5,7.7-9.1,13-11.9
					c5.1-2.7,10.7-4.1,16.4-4.1c3.3,0,6.6,0.5,9.8,1.6c3.1,1.1,5.9,2.8,8.2,5l0.3,0.3l0.2-0.7c1-2.9,2.2-5.6,3.8-8.2l0.4-0.7
					c3-5,7.2-9.1,12.2-12c5.5-3,11.7-4.5,18-4.3c1.3,0,2.6,0.1,3.9,0.1l0.5,0c7.2,0.6,13.4,2.7,18.3,6.3c4.8,3.5,8.6,8.3,10.8,13.8
					c1.6,3.9,2.7,7.9,3.2,12.1c0.1,0.7,0.2,1.5,0.2,2.2v0l0.6-0.4c0.8-0.4,1.5-0.8,2.3-1.2l0.8-0.4c4.1-2.1,8.6-3.7,13.1-4.5
					c1.6-0.3,3.2-0.4,4.8-0.4c5.1,0,9.3,1.6,12.4,4.8c4.6,4.7,6.9,12.8,6.6,24l0,0.1l0.1,0.4c0.1,0.4,0.2,0.9,0.3,1.4
					c0.5,1.8,1.1,3.6,2,5.2c2.4,4.6,5.5,6.9,9.6,6.9l0.2,0c1.7,0.1,2.9,1.5,2.8,3.2c-0.1,1.5-1.3,2.7-2.8,2.8L503.6,76.9L503.6,76.9
					z M361,25.4c-9.8,0-18.9,5-24.3,13.2c-1.3,2-2,4.2-2.2,6.5c-0.5,5.5,1.8,11.7,6.8,18.6c1.5,2,3.1,4,4.9,5.8
					c0.4,0.4,0.7,0.7,1.1,1.1l0.3,0.2h143.8l-0.4-0.5c-0.8-1-1.5-2.1-2.1-3.3l-0.2-0.3c-1.1-2-1.9-4.2-2.5-6.4
					c-0.2-0.7-0.4-1.5-0.5-2.1l0-0.2c0-0.2-0.1-0.3-0.1-0.5l0-0.2l0-0.2v-0.4v-0.1l0-0.9c0.1-9-1.6-15.3-4.9-18.7l-0.2-0.2
					c-2.2-2-5.1-3-8-2.9c-1.2,0-2.5,0.1-3.7,0.3c-4,0.8-7.9,2.1-11.5,4c-1.9,0.9-3.7,2-5.5,3.1c-0.3,0.2-0.7,0.4-1,0.6l-0.7,0.5
					l-0.5,0.4c-0.5,0.3-1,0.5-1.6,0.5c-0.8,0-1.7-0.4-2.2-1c-0.6-0.6-0.8-1.4-0.8-2.3l0-0.2l0-0.4c0-2-0.1-4-0.3-5.9
					c-0.4-3.6-1.3-7.1-2.7-10.5c-4.3-10.2-12.4-15.6-24.6-16.5c-1.2-0.1-2.3-0.1-3.4-0.1c-11.1,0-19.6,4.5-25.1,13.5
					c-1.8,3-3.2,6.1-4.1,9.5c-0.3,1.1-0.6,2.1-0.8,3.1c-0.1,0.4-0.1,0.7-0.1,0.8l-0.1,0.4c-0.2,1.4-1.5,2.5-3,2.5
					c-1.1,0-2.1-0.6-2.6-1.6l-0.2-0.4C374.8,28.6,368.6,25.4,361,25.4z"/>
				<path id="cloud" class="st2" d="M3.1,74.2h157.2c0,0,22.6-20.3,12.2-36.9s-37.7-20.6-46.6-3.8c0,0-3.9-32.1-36.8-29.6
					c-33,2.5-30.4,36.8-30.4,36.8S17,11.2,18.1,57.3C18.2,57.2,15.6,74.1,3.1,74.2z"/>
				<path id="cloud_2_2" class="st3" d="M160.3,77.2H3.1c-1.7,0-3-1.3-3-3c0-1.7,1.3-3,3-3l0,0l0.3,0c3.8-0.1,6.8-2.3,9.1-6.6
					l0.2-0.3c0.9-1.7,1.5-3.4,2-5.2c0.2-0.6,0.3-1.2,0.4-1.7l0-0.3l0-0.5c-0.2-11,2.1-18.9,6.7-23.6c3.1-3.2,7.3-4.8,12.3-4.8
					c1.5,0,2.9,0.1,4.3,0.4l0.5,0.1c4.6,0.9,9,2.4,13.1,4.5c1,0.5,2.1,1.1,3.1,1.6l0.6,0.4l0-0.6c0-0.4,0.1-0.7,0.1-1.1l0.1-0.6
					c0.5-4.2,1.5-8.2,3.2-12.1c2.3-5.6,6.1-10.4,11-14c5-3.5,11.3-5.6,18.7-6.2l0.6,0c1.1-0.1,2.2-0.1,3.3-0.1
					c6.3-0.1,12.5,1.4,18,4.3c5,2.9,9.2,7,12.2,12c1.7,2.8,3.1,5.8,4.2,8.9l0.2,0.7l0.3-0.3c2.4-2.2,5.2-3.9,8.2-5
					c3.1-1.1,6.5-1.7,9.8-1.6c5.6,0,11.2,1.4,16.1,4c5.2,2.6,9.7,6.6,12.9,11.5l0.4,0.6c1.7,2.8,2.8,5.9,3.1,9.2
					c0.3,3.8-0.3,7.7-1.7,11.3c-1.6,4.1-3.7,7.9-6.3,11.4c-1.7,2.3-3.5,4.4-5.4,6.4c-1.1,1.2-1.9,1.9-2.3,2.3l-0.2,0.2
					C161.8,76.9,161,77.2,160.3,77.2z M34.2,34.4c-2.9-0.1-5.8,0.9-8,2.9c-3.5,3.3-5.2,9.7-5.1,18.9l0,0.9l0,0.1v0.3l0,0.2l0,0.2
					c0,0.1,0,0.2,0,0.3l-0.1,0.4c-0.1,0.6-0.3,1.4-0.5,2.1C19.9,62.9,19,65,18,67.1c-0.7,1.5-1.6,2.8-2.7,4.1l0,0h143.8
					c0.2-0.2,0.3-0.3,0.5-0.5l0.6-0.6l0.3-0.3c1.8-1.8,3.4-3.8,4.9-5.8c5-6.9,7.3-13.1,6.8-18.6c-0.2-2.3-1-4.6-2.2-6.5
					c-5.4-8.2-14.5-13.1-24.3-13.2c-7.8,0-14.1,3.3-17.1,9.2l-0.1,0.2c-0.5,0.9-1.5,1.5-2.5,1.4c-1.5,0-2.8-1.1-3-2.6l0-0.3
					l-0.1-0.7c-0.2-1-0.4-2-0.8-3.1c-0.9-3.3-2.3-6.5-4.1-9.5c-5.5-8.9-14-13.5-25.1-13.5c-1.1,0-2.3,0-3.4,0.1l-0.5,0
					C76.9,8,69,13.4,64.7,23.4c-1.4,3.3-2.3,6.9-2.7,10.5c-0.3,2.1-0.4,4.2-0.3,6.3l0,0.5c0,0.8-0.3,1.6-0.8,2.1
					c-0.6,0.6-1.4,0.9-2.2,0.9c-0.6,0-1.2-0.2-1.7-0.6l-0.4-0.3l-0.7-0.5l-0.1,0l-0.2-0.2l-0.7-0.4c-1.8-1.1-3.6-2.1-5.5-3.1
					c-3.6-1.9-7.5-3.2-11.5-4C36.7,34.5,35.4,34.4,34.2,34.4z"/>
			</g>
			<path id="line" class="st3" d="M1244.5,705.9c1.7,0,3,1.3,3,3c0,1.6-1.2,2.9-2.8,3l-0.2,0H3.5c-1.7,0-3-1.3-3-3
				c0-1.6,1.2-2.9,2.8-3l0.2,0H1244.5z"/>
		</g>
	</g>
</g>
</svg>
