<?xml version="1.0" encoding="utf-8"?>
<!-- Generator: Adobe Illustrator 25.2.1, SVG Export Plug-In . SVG Version: 6.00 Build 0)  -->
<svg version="1.1" id="Layer_1" xmlns="http://www.w3.org/2000/svg" xmlns:xlink="http://www.w3.org/1999/xlink" x="0px" y="0px"
	 viewBox="0 0 1225.1 709.2" style="enable-background:new 0 0 1225.1 709.2;" xml:space="preserve">
<style type="text/css">
	.st0{fill:#FFFFFF;}
	.st1{fill:#C70D3A;}
	.st2{fill:#C7627B;}
	.st3{fill:#323232;}
	.st4{fill:#070707;}
</style>
<g id="support_solid" transform="translate(2.2)">
	<g id="support_solid-2" transform="translate(-3)">
		<g id="support_solid-3">
			<g id="suculent" transform="translate(150 397)">
				<path id="succulent" class="st0" d="M309.9,71.5c-9.6-5.1-17.8-2.7-26.8,6.9c4.1-23.2,4-51.3-14.4-56
					c-18.9-4.9-29.6,6.9-40.7,35.4c0.4-24.4-4.4-55.9-24.6-57.2c-22.7-1.4-30.3,17.3-35.9,58.8c-7.1-23.2-26.6-63.9-49.6-55.8
					c-22.5,7.9-21,29.6-8.5,73.8c-12.3-19.1-37-47.5-53.5-36.7c-15.7,10.2-11.4,26.9,6,57.9c-11.5-5-23.4-5.5-33,3.9
					c-21.5,21.2-11.1,41.3,18.6,78.6c29.8,37.3,243.7-28.7,253.8-45.5C311.5,118.7,327.4,80.9,309.9,71.5z"/>
				<path id="succulent_2_" class="st1" d="M88.7,195.4L88.7,195.4c-22.3,0-36.9-4.2-43.5-12.4c-6.9-8.4-13.4-17.3-19.3-26.4
					c-4.7-7.3-7.7-13.4-9.5-19.3l-0.2-0.7c-2-6.9-2.2-13.1-0.4-19c1.7-5.9,5.4-11.6,11.1-17.2C32,95,39.2,92,46.7,92.1
					c2.9,0,5.8,0.4,8.6,1.1l0.3,0.1l-0.4-0.8c-6.8-13-10.4-22.1-11.5-29.7l-0.1-0.4c-0.7-5.3-0.2-9.9,1.5-13.9
					c2-4.2,5.2-7.8,9.2-10.2c2.9-1.9,6.2-2.9,9.7-2.9c6.6,0,14,3.4,22.2,10.2c5.8,5,11.1,10.5,15.9,16.5l0.3,0.3l-0.2-0.8
					c-3.7-15.3-5.1-26-4.6-34.5l0.1-0.9c0.5-6.6,2.4-11.8,5.5-16c3.2-4.2,7.7-7.3,13.8-9.4c2.3-0.8,4.7-1.2,7.1-1.2
					c5,0.1,9.9,1.8,14,4.8c5.1,3.8,9.6,8.4,13.1,13.7c6.2,9,11.3,18.7,15.2,28.9l0,0.1l0.2-1.1c2.6-15.4,5.6-25.7,9.7-33.1l0.2-0.3
					c2.4-4.6,5.9-8.5,10.3-11.2c4.4-2.6,9.3-3.8,14.4-3.7c0.8,0,1.6,0,2.5,0.1c5.2,0.3,10.1,2.5,13.7,6.3c3.7,3.7,6.7,9,8.9,15.7
					c2.5,7.9,3.9,16.1,4.4,24.3l0,0.2l0.4-0.7c4.3-8.7,8.7-14.9,13.4-19c4.5-4,10.2-6.2,16.2-6.1c2.8,0,5.5,0.4,8.2,1.1l0.6,0.1
					c4.8,1.2,8.9,4,11.8,8c2.9,3.9,4.9,9.1,6,15.5c1.3,7.6,1.3,16.7,0.1,27.2l-0.1,0.5l0.4-0.3c3.7-2.8,8.1-4.3,12.7-4.4
					c3.7,0.1,7.3,1,10.5,2.8l0.4,0.2c2.3,1.2,4.2,2.9,5.7,5c1.5,2.2,2.5,4.7,3,7.3c1.1,5.4,0.7,12.2-1.2,20.3
					c-2.7,11.1-8.4,24.8-15,35.7c-1.4,2.4-5.9,5.4-13.2,9.1c-9.1,4.3-18.4,8.2-27.8,11.6c-26.3,9.4-53.1,17.3-80.3,23.8
					c-18.9,4.5-36.3,8-51.9,10.3C116.7,194,102.7,195.2,88.7,195.4z M46.8,98.1c-5.9,0-11.6,2.3-15.7,6.6
					c-9.8,9.7-12.5,18.7-9.1,30.3c3,10.1,10.3,21.9,26,41.8l2,2.5c2.7,3.4,7.4,6,14,7.7c6.4,1.7,14.6,2.5,24.4,2.5
					c23.3,0,55.4-4.7,92.9-13.7c26.9-6.4,53.4-14.2,79.5-23.5c10.5-3.8,19.6-7.5,26.5-10.8c6.7-3.2,10.8-5.7,11.7-7.3
					c6.3-10.5,11.8-23.5,14.3-34c1.6-6.7,2.1-12.3,1.3-16.7c-0.8-4.4-2.7-7.5-5.9-9.2c-2.5-1.4-5.2-2.2-8-2.3
					c-4.7,0-9.3,2.5-14.5,7.9l-0.7,0.7c-0.6,0.6-1.3,1-2.2,1c-0.9,0-1.8-0.4-2.4-1.1c-0.6-0.7-0.8-1.6-0.6-2.4
					c2.5-14.4,2.9-26.7,0.9-35.7c-2-9.5-6.5-15.2-13.1-16.9c-2.3-0.6-4.6-0.9-7-1c-6.2,0-11.3,2.6-16.1,8.1
					c-4.7,5.4-9.2,13.8-14.1,26.4c-0.4,1.2-1.5,1.9-2.8,1.9c-0.8,0-1.6-0.3-2.2-0.9c-0.6-0.6-0.9-1.3-0.8-2.1
					c0.3-15.7-1.5-28.9-5.1-38.3c-3.8-9.9-9.5-15.4-16.7-15.8c-0.7,0-1.5-0.1-2.1-0.1c-9,0-15.1,3.8-19.8,12.5
					c-4.6,8.5-7.9,22-10.8,43.8c-0.2,1.5-1.5,2.6-3,2.6c-1.3,0-2.5-0.8-2.9-2.1c-4.4-14.3-11.3-28.8-18.4-38.8
					c-7.6-10.6-15.1-15.9-22.4-15.9c-1.7,0-3.4,0.3-5,0.9c-9.8,3.4-14.4,9.4-15.3,19.9c-0.9,10.3,1.7,25.4,8.7,50.3
					c0.3,0.9,0.1,1.9-0.4,2.6c-0.6,0.8-1.5,1.2-2.5,1.2c-1,0-1.9-0.5-2.5-1.4c-7.1-11-14.8-20.3-22.3-27c-7.8-6.9-15-10.6-20.7-10.6
					c-2.2,0-4.4,0.6-6.3,1.8c-6.7,4.3-9.2,9.9-8.1,18.1c1.1,8.1,5.7,19.2,15.1,35.9c0.5,0.9,0.5,2.1,0,3c-0.7,1.3-2.4,1.9-3.8,1.3
					C56.3,99.3,51.6,98.2,46.8,98.1z"/>
				<path id="pot" class="st2" d="M311.6,134.8l0.2-0.6l-287.7,0.9l0.2,0.6c-15.7,3.1-26.1,17.9-23.7,33.7l21.5,138.8l291.6-0.9
					l21.5-138.8C337.7,152.7,327.2,137.9,311.6,134.8z"/>
			</g>
			<g id="woman" transform="translate(240)">
				<g id="body" transform="translate(0 218)">
					<path id="clothing" class="st3" d="M692.8,263.8c-4.5,0-9,0.3-13.4,0.8c-23.9-33-51.3-61-80.1-78.8c-75-46.2-178-33-274.1,2.6
						c-66.1,24.4-149.8,103.2-203.5,159c-70,5.3-123.8,52.9-120.6,107.4c0.7,11.7,4,23.1,9.6,33.4l234.9,1.6
						c0.4-0.6,0.8-1.3,1.2-1.9l348.4-1.2c0.4,0.5,0.8,1,1.2,1.6l192.9-0.3c17.9-23.7,28.6-54,28.6-87.1
						C817.9,325.1,761.9,263.8,692.8,263.8z"/>
					<g id="clothing_lines" transform="translate(119 190)">
						<path id="Path" class="st0" d="M487.2,0.3c-88.7,55-168.3,56.2-219.9,47.3C219.5,39.4,185,21,173.8,13.8
							c-1.9,1.1-3.8,2.2-5.8,3.3c9.2,6.3,45.2,27.1,97.2,36.2c16.9,3,34.1,4.5,51.3,4.5c17.6,0,35.1-1.5,52.4-4.6
							c42.1-7.5,83.6-24,123.6-49.1C490.7,2.7,489,1.5,487.2,0.3z"/>
						<path id="Path-2" class="st0" d="M478,94.8c14.1-19.8,31.5-30.9,51.8-33.1c7.4-0.8,14.8-0.3,22,1.4c-1.9-2.4-3.8-4.8-5.7-7.1
							c-5.5-0.7-11.1-0.8-16.6-0.2c-15.3,1.6-37.5,9-56.4,35.6c-0.9,1.4-0.6,3.2,0.7,4.2c0.5,0.4,1.1,0.6,1.7,0.6
							C476.5,96.1,477.4,95.6,478,94.8z"/>
						<path id="Path-3" class="st0" d="M479.1,165.1L479.1,165.1c1.6,0,3-1.3,3.1-2.9c0.2-8.8,3.7-28.8,16-47.6
							c14.2-21.9,35.2-35.3,62.2-40.1c-1.3-1.8-2.6-3.6-4-5.4c-27,5.5-48.8,20-63.3,42.2c-12.1,18.6-16.7,39-17,50.7
							C476.1,163.7,477.4,165.1,479.1,165.1C479.1,165.1,479.1,165.1,479.1,165.1z"/>
						<path id="Path-4" class="st0" d="M55.4,135.6c-11.4-0.5-22.7,0.4-33.9,2.6c-3,3-6,6-8.9,9c11.1-6.1,74.3-13.7,100.4,16
							c0.6,0.7,1.4,1,2.3,1c0.7,0,1.4-0.2,2-0.7c1.2-1.1,1.4-3,0.3-4.2C100.7,140,71.4,136.2,55.4,135.6z"/>
						<g id="Group" transform="translate(0 150)">
							<path id="Path-5" class="st0" d="M0.7,7.6h0.2C0.8,7.5,0.8,7.5,0.7,7.6C0.7,7.6,0.7,7.6,0.7,7.6z"/>
							<path id="Path-6" class="st0" d="M106.8,28.5C71.5,1.8,27.5,0.2,8.9,1C6.8,3.2,4.7,5.3,2.7,7.4c10.7-0.9,61.8-3.3,100.5,25.9
								c1.3,1,3.2,0.7,4.2-0.6C108.4,31.4,108.1,29.5,106.8,28.5z"/>
						</g>
					</g>
					<path id="hand" class="st0" d="M73.3,487.3c0,0,32.8-97,125.1-79.4c92.3,17.6,218.6,55.4,218.6,55.4v24.3L73.3,487.3z"/>
					<path id="hand_2_" class="st4" d="M417,490.6l-343.7-0.3c-1.7,0-3-1.3-3-3c0-0.3,0.1-0.7,0.2-1c0-0.1,0.1-0.2,0.1-0.3l0.4-1.1
						c0.1-0.4,0.3-0.7,0.4-1.1l0.5-1.2c1.2-3,2.7-6.2,4.2-9.4c5-10.2,11.1-19.7,18.1-28.6c5.5-6.9,11.8-13.3,18.6-18.9
						c6.7-5.5,14-10.1,21.9-13.8c6.4-3,13.2-5.3,20.1-6.8c7.2-1.6,14.5-2.3,21.8-2.3c7.5,0,15,0.8,22.4,2.2
						c17.2,3.3,36.8,7.5,58.3,12.5l3.6,0.9c12.8,3,26.3,6.4,40.3,9.9c26.1,6.7,53.7,14.1,81.9,22.1c8.8,2.5,17.3,4.9,25.3,7.3
						l5.4,1.6l4,1.2c1.3,0.4,2.1,1.5,2.1,2.9v24.3C420,489.3,418.7,490.6,417,490.6z M176.6,408.8c-13.6-0.1-27,2.9-39.3,8.6
						c-14.2,6.6-27.1,17.1-38.4,31.1c-6.8,8.5-12.6,17.7-17.4,27.5c-1.3,2.6-2.5,5.3-3.5,7.8l-0.3,0.7l336.3,0.3v-19.1l-9.3-2.7
						c-7.4-2.2-15.3-4.4-23.2-6.7l-4.2-1.2c-26.7-7.5-52.8-14.5-77.6-20.9c-14-3.6-27.5-6.9-40.2-9.9c-22.8-5.4-43.6-9.9-61.7-13.3
						C190.8,409.5,183.7,408.8,176.6,408.8z"/>
					<g id="hand_II_1_" transform="translate(682)">
						<path id="Path-7" class="st0" d="M120.1,129c0,0-7.4-3.7-8.3-12.2c-0.9-8.5,4.8-45.5,14-50.7c9.3-5.2,51.6-28.1,59.4-27.6
							S196.2,106.9,120.1,129z"/>
						<path id="Path-8" class="st0" d="M124.6,70.2c15.8-55.3,28.7-67.7,36.2-62.3c6.8,4.9-7,40.1-11,58.4"/>
						<path id="Path_2_" class="st4" d="M143.3,14.6l0.5-0.7c6.4-9.4,13-12.6,18.8-8.4c3.4,2.4,3.7,7.5,2.4,15.5l-0.2,1.1
							c-0.9,4.9-2.4,10.7-4.8,19.1l-4,13.5c-1.9,6.4-2.5,8.8-3.2,12.2c-0.4,1.6-2,2.6-3.6,2.3c-1.6-0.4-2.6-2-2.3-3.6l0,0l0.3-1.3
							c0.6-2.8,1.3-5.3,2.8-10.6l4-13.7c2.1-6.6,3.7-13.4,5.1-20.2l0.1-0.8c0.8-5.2,0.6-8.4-0.1-8.8c-2.3-1.7-5.8,0.1-10.7,7.6
							l-0.4,0.7c-6.3,9.9-13.2,27.3-20.4,52.4c-0.5,1.6-2.1,2.5-3.7,2.1c-1.6-0.5-2.5-2.1-2.1-3.7l0.5-1.8
							C129.5,42.3,136.6,24.8,143.3,14.6z"/>
						<path id="hand_II_3_" class="st0" d="M194.3,58.2c7.9-12.9,21-12.2,14.2,9.7c-6.7,21.4-11.6,49.2-24.1,61.8s-17,18.2-17,18.2
							s-25,93.3-39.2,170.9C107.7,431,68.9,452.6,32.7,439.7c-36.2-12.8-42.9-63.6,6.5-162.1c49.4-98.6,75.5-156,75.5-156"/>
						<path id="hand_II_4_" class="st4" d="M191.7,56.6c4.5-7.3,11-11.4,16.2-9.4c5.8,2.2,6.9,10,3.5,21.2l-0.7,2.4
							c-0.9,2.9-1.8,6-2.9,10.2l-2.2,7.9c-6.4,22.9-11.1,34.7-18.9,42.7l-2,2c-4.1,4.2-7.5,7.7-10.3,10.8l-1.1,1.2
							c-1.2,1.3-2.1,2.4-2.9,3.2l-0.4,0.5l-1.6,6l-1.4,5.4c-1.4,5.3-2.9,11.1-4.4,17.4c-5.7,22.6-11.4,46.3-16.7,69.8l-1.2,5.1
							c-2.5,11-4.8,21.8-7,32.2l-0.9,4.2c-1.9,9-3.6,17.7-5.1,26.1l-0.7,3.8c-9.8,53.5-24.2,89.3-42.6,108.9
							c-16.5,17.5-36,21.7-56.8,14.3c-20-7.1-30.8-24.8-30.9-51.7c0-28.1,11.5-66,35-113.1l4.6-9.2c18.7-37.4,35.2-71.2,49.4-101
							l5.5-11.6c3.4-7.2,6.5-13.8,9.3-19.8l4.4-9.4l2.9-6.3c0.7-1.5,2.5-2.2,4-1.5c1.4,0.7,2.1,2.3,1.6,3.8l-0.4,0.8l-3.1,6.8
							l-4.3,9.2c-3.2,6.9-6.9,14.7-11,23.3l-4.2,8.8C79.4,203.1,61.9,239.1,41.9,279c-45.4,90.5-45.3,144.8-8.2,157.9
							c18.7,6.6,35.6,3,50.4-12.8c17.3-18.4,31.2-52.7,40.8-104.3l0.3-1.6c2-10.8,4.2-22.2,6.7-34.3c2.5-12,5.2-24.5,8.1-37.4
							c5-22.3,10.4-44.7,15.8-66.2l2.2-8.7c1-4,2-7.8,2.9-11.4l1.9-7.2l1.6-6c0.1-0.4,0.3-0.8,0.6-1.1l0.4-0.5l0.5-0.6
							c0.8-0.9,1.8-2,3-3.4l1.5-1.7c3.2-3.4,7.1-7.5,11.8-12.3l0.5-0.5c6.4-6.7,10.8-17.2,16.4-37l3.6-13c1-3.6,1.8-6.3,2.6-8.9
							l0.4-1.2c2.7-8.7,2.1-13.5,0.2-14.2c-1.8-0.7-5.8,1.8-9,7c-0.9,1.4-2.7,1.9-4.1,1C191.3,59.9,190.9,58,191.7,56.6L191.7,56.6
							L191.7,56.6z"/>
						<path id="Path-9" class="st0" d="M115.6,123.3c-7.2-4.9-6.3-33.1-14.4-45.4c-10-15.3-19.8-31.2-1.3-28.8
							c15.9,2,20.9,16,24.6,21"/>
						<path id="Path_2_2" class="st4" d="M87,57.6c-2.1-8.4,2.8-12.8,13.3-11.5c8.8,1.1,15.2,5.5,20.4,12.5l0.2,0.3
							c1.9,2.6,5.5,8.7,6,9.4l0,0c1,1.3,0.8,3.2-0.5,4.2c-1.3,1-3.2,0.8-4.2-0.5c0-0.1-0.1-0.1-0.1-0.2l-0.1-0.1
							c-0.9-1.3-4.6-7.5-6.1-9.6c-4.3-5.8-9.3-9.2-16.3-10.1c-3.7-0.5-5.8-0.1-6.6,0.6c-0.5,0.4-0.6,1.4-0.2,3.2l0.1,0.3
							c1,4.2,4,9.6,10.6,19.6l0.3,0.5c3.1,4.7,4.9,10.8,6.9,20.6l0.4,2l1.2,6.4c1.8,9.7,3.3,14.1,5.1,15.5l0.1,0.1
							c1.4,0.9,1.7,2.8,0.8,4.2c-0.9,1.4-2.8,1.7-4.1,0.8c-3.8-2.6-5.4-7.3-7.6-18.8l-1.4-7.3l-0.2-1c-1.8-9.3-3.5-15-6-18.9
							L97,76.9C91,67.6,88.1,62.4,87,57.6z"/>
						<path id="Path-10" class="st0" d="M185.1,81.6c0,0,14.1-34.2,18.8-50.1c5.2-17.3-13-19.8-21.8,5.1"/>
						<path id="Path_2_3" class="st4" d="M198.1,15.2c7.8-0.5,11.6,7.1,8.8,16.8l-0.1,0.3c-1.4,4.9-3.8,11.6-6.9,19.8l-0.5,1.5
							c-0.4,1.1-0.9,2.3-1.3,3.4c-1.9,5.1-4,10.4-6.1,15.6l-1.7,4.3l-1.8,4.4l-0.6,1.5c-0.6,1.5-2.4,2.3-3.9,1.6
							c-1.5-0.6-2.2-2.3-1.7-3.8l2.4-5.9c0.3-0.7,0.5-1.3,0.8-2c2.1-5.2,4.2-10.4,6.1-15.5l1.3-3.3l0.9-2.3
							c3.2-8.5,5.7-15.5,7.2-20.5l0.1-0.4c1.9-6.4,0.3-9.6-2.6-9.4c-4.3,0.3-9.9,6.1-13.5,16.4c-0.6,1.6-2.3,2.4-3.8,1.8
							c-1.6-0.6-2.4-2.3-1.8-3.8C183.6,23.3,190.9,15.7,198.1,15.2z"/>
						<path id="Path-11" class="st0" d="M168.5,72.6c0,0,27.7-62.7,15.3-68.3c-11.3-5.1-19.9,17.8-34.1,62"/>
						<path id="Path_2_4" class="st4" d="M165.6,14.6C171.6,3,177.7-1.7,185,1.6c7.5,3.4,6.1,16.4-0.6,37.6
							c-1.1,3.6-2.4,7.4-3.8,11.2c-1.8,5-3.7,10-5.7,14.7l-0.7,1.8c-0.7,1.7-1.3,3.2-1.9,4.5l-1,2.4c-0.7,1.5-2.5,2.2-4,1.5
							c-1.5-0.7-2.2-2.4-1.5-3.9l0.8-1.8l0.6-1.5c0.4-1.1,0.9-2.2,1.4-3.4c2.2-5.2,4.3-10.7,6.3-16.3c1.4-3.8,2.6-7.5,3.8-11
							l0.5-1.6c5.1-16.4,6.2-27.5,3.4-28.7c-3.5-1.6-7.2,1.4-12,11.1l-0.6,1.1c-4.5,9.2-9.3,22.7-17.4,47.9
							c-0.5,1.6-2.2,2.4-3.8,1.9c-1.6-0.5-2.4-2.2-1.9-3.8l1.7-5.4c7.4-22.9,12-35.3,16.4-44.2L165.6,14.6z"/>
					</g>
				</g>
				<g id="head" transform="translate(313)">
					<path id="neck" class="st0" d="M84.8,336.2l3.9,70.7c0,0-6.6,38.2,46.4,31.1c52.8-7,46.3-38.3,46.3-38.3l-16.3-87.8L84.8,336.2
						z"/>
					<path id="neck_2_" class="st4" d="M122.7,441.9L122.7,441.9c-9,0-16.5-1.6-22.3-4.7c-5.5-2.8-9.8-7.5-12.3-13.1
						c-2.3-5.2-3.1-10.8-2.6-16.4c0-0.2,0-0.4,0.1-0.6l0-0.3l-3.9-70.4c-0.1-1.4,0.8-2.6,2.1-3l80.3-24.3c1.6-0.5,3.3,0.4,3.7,2
						c0,0.1,0.1,0.2,0.1,0.3l16.3,87.8c0,0.2,0.1,0.4,0.1,0.6l0.1,0.4c0.4,3.4,0.1,6.9-0.8,10.3c-1.1,3.9-3,7.6-5.5,10.9
						c-7.9,10.3-22.3,16.9-42.7,19.6C131.3,441.6,127,441.9,122.7,441.9z M162.8,315.7l-74.8,22.6l3.8,68.3c0,0.2,0,0.3,0,0.5l0,0.2
						c0,0.1,0,0.2-0.1,0.4l0,0.4c-0.5,4.6,0.2,9.2,2.1,13.4c4.2,9.5,13.9,14.2,28.9,14.2c4.1,0,8.1-0.3,12.2-0.9
						c18.8-2.5,31.8-8.3,38.8-17.3c3.8-4.7,5.6-10.8,5.1-16.8c0-0.2,0-0.4-0.1-0.5L162.8,315.7z"/>
					<path id="ear" class="st0" d="M185.4,222.7c0,0,41-15.4,42.6,27.3c1.6,42.7-42.6,31.6-42.6,31.6"/>
					<path id="ear_2_" class="st4" d="M189.4,218.4c5.8-1.5,11.9-1.8,17.8-1c14.1,2.3,23.1,12.6,23.8,32.4
						c0.8,20.4-8.3,31.6-23.6,35c-6.3,1.3-12.7,1.4-19,0.3l-1-0.2c-1.2-0.2-2.2-0.4-2.7-0.6c-1.6-0.4-2.6-2-2.2-3.6
						c0.4-1.5,1.9-2.5,3.5-2.2l0.7,0.1l0.3,0.1c0.7,0.1,1.5,0.3,2.4,0.4c5.6,0.9,11.3,0.8,16.8-0.3c12.5-2.7,19.6-11.4,18.9-28.9
						l0-1c-0.9-16.2-7.7-23.9-18.7-25.7c-5.2-0.7-10.4-0.4-15.5,0.9c-1,0.2-1.9,0.5-2.8,0.7l-0.4,0.1c-0.3,0.1-0.6,0.2-0.8,0.2
						l-0.4,0.1c-1.6,0.6-3.3-0.2-3.9-1.8s0.2-3.3,1.8-3.9l0.4-0.1C186.3,219.2,187.8,218.8,189.4,218.4z"/>
					<path id="face" class="st0" d="M108.5,357.7L108.5,357.7c-44.4,0-80.4-36-80.4-80.4c0,0,0,0,0,0v-70.2
						c0-28.4,23.1-51.5,51.5-51.5H150c21.5,0,39,17.5,39,39v82.6C189,321.7,153,357.7,108.5,357.7z"/>
					<path id="face_2_" class="st4" d="M108.5,360.7c-16.6,0-32.9-4.9-46.6-14.2c-13.4-9.1-23.9-21.8-30.2-36.7
						c-4.3-10.3-6.6-21.3-6.6-32.5v-70.2c0-30.1,24.4-54.5,54.5-54.5H150c23.2,0,42,18.8,42,42v82.6c0,16.5-4.8,32.6-14,46.3
						c-8.9,13.3-21.4,23.9-36.1,30.3c-10.1,4.4-21,6.8-32.1,6.9L108.5,360.7z M79.6,158.6c-26.8,0-48.5,21.7-48.5,48.5v70.2
						c0,42.7,34.7,77.3,77.4,77.4l1.3,0c42-0.7,76.2-35.4,76.2-77.5v-82.6c0-19.9-16.1-36-36-36H79.6z"/>
					<g id="headphones" transform="translate(14 250)">
						<path id="Path-12" class="st1" d="M193.7,65.3c0-17.5-1.6-35-4.9-52.2c0-0.3,0.1-0.7,0.1-1c0-6.3-5.1-11.4-11.4-11.4v11.4
							l0.3,11.4c2.3-0.1,4.5-0.9,6.4-2.2c3.7,23,11,91.6-19.8,149.9c-5.6,10.7-10.9,20.6-16.1,30.1c-29,54.1-48.2,89.9-47.7,121.8
							c0,1.6,1.4,3,3,3l0,0c1.7,0,3-1.3,3-3c-0.4-30.4,18.5-65.6,47-118.9c5.1-9.6,10.4-19.4,16.1-30.2
							C189.8,135.9,193.9,93.9,193.7,65.3z"/>
						<path id="Path-13" class="st1" d="M6.3,24.8c1.4,0.8,3,1.3,4.6,1.4V3.5C5.7,4,1.4,8,0.7,13.2c-0.3,0.5-0.5,1.1-0.5,1.7
							c0,4.6,0,112.3,32,160.9C64.9,225.6,75,254,77.3,302.2c0.1,1.6,1.4,2.9,3,2.9h0.1c1.6-0.1,2.9-1.5,2.9-3.1
							c-2.3-49.6-12.6-78.6-46.1-129.5C11.6,133.7,7.1,52.9,6.3,24.8z"/>
					</g>
					<path id="nose" class="st4" d="M83.8,226c1.6,0,2.9,1.2,3,2.8l0,0.2l1.1,63.5l0,0c0.3,0.1,0.5,0,0.8-0.1l0.1-0.1
						c1.5-0.7,3.6-2.9,5.9-7.2c0.8-1.5,2.6-2,4.1-1.2c1.5,0.8,2,2.6,1.2,4.1c-5.5,10-11.4,12.6-16.1,9c-0.6-0.4-1.1-0.9-1.5-1.5
						c-0.3-0.4-0.5-0.9-0.5-1.4l0-0.2l-1.1-64.8C80.9,227.4,82.2,226,83.8,226C83.8,226,83.8,226,83.8,226z"/>
					<path id="mouth" class="st4" d="M115.5,301.9c1.4-0.9,3.2-0.5,4.2,0.9c0.2,0.2,0.3,0.5,0.4,0.8l0.1,0.2
						c0.1,0.3,0.2,0.6,0.2,1.1c0.7,3.8,0.1,7.7-1.7,11.1c-3.3,6.2-10.6,10.2-22.2,11.4c-1.6,0.2-3.1-1.1-3.3-2.7
						c-0.2-1.6,1-3.1,2.7-3.3c9.8-1,15.2-4,17.6-8.3c0.5-1,0.9-2.1,1.1-3.2l0.1-0.4l-0.1,0.1c-13,7-26.1,7.5-32.5,0.3l-0.2-0.2
						c-1.1-1.3-0.9-3.2,0.4-4.2c1.3-1,3.1-0.9,4.2,0.3C90.8,311.1,103.1,310,115.5,301.9z"/>
					<path id="brow" class="st4" d="M111.2,202.6c6.5-5,14.3-5.5,22.7,1.2c1.3,1,1.5,2.9,0.5,4.2s-2.9,1.5-4.2,0.5
						c-6.1-4.8-10.8-4.5-15.3-1.1c-0.6,0.5-1.2,1-1.7,1.5L112,210c-0.2,0.1-0.3,0.3-0.4,0.4c-0.4,0.3-0.8,0.6-1.3,0.7
						c-1.6,0.4-3.2-0.6-3.6-2.2c-0.3-1.2,0.1-2.4,1.1-3.1l0.1-0.1l0.7-0.7C109.3,204.1,110.2,203.3,111.2,202.6z"/>
					<ellipse id="eye_II" class="st4" cx="132" cy="248.1" rx="5" ry="7.7"/>
					<ellipse id="eye" class="st4" cx="59.3" cy="250" rx="5" ry="7.7"/>
					<path id="brow_II" class="st4" d="M45.4,201.6c7.5-6,15.7-6.3,22.9,3c1,1.3,0.8,3.2-0.5,4.2s-3.2,0.8-4.2-0.5c0,0,0,0,0,0
						c-4.9-6.3-9.3-6.1-14.4-2c-0.7,0.6-1.4,1.2-2,1.8l-1.2,1.2c-0.2,0.2-0.3,0.3-0.4,0.4c-0.4,0.3-0.8,0.6-1.3,0.7
						c-1.6,0.4-3.2-0.6-3.6-2.2c-0.3-1.2,0.1-2.4,1.1-3.1l0.1-0.1l0.8-0.8C43.4,203.3,44.3,202.5,45.4,201.6z"/>
					<g id="hair_shape" transform="translate(24)">
						<path id="Path-14" class="st4" d="M104.6,138.1c-19.5,0.3-34.3,1.2-43.1,2.9l0,0c-71.6,16.3-60,69.3-60,69.3s35,6.7,63.5-35.5
							c0,0,39.1,31.9,97,44.8c0.9-0.2,2-0.5,3-0.8v2.9c4.8-1.3,9.7-1.8,14.6-1.5c-0.6-20.9-4.4-47.3-21.6-64.3
							C145.8,143.8,127.8,137.8,104.6,138.1z"/>
						<path id="Path-15" class="st0" d="M63.1,134.5c14.9-1.8,29.9-2.6,44.8-2.5c30.9,0.3,51.6,11.7,63.8,31.8
							c4.9,8.4,8.5,17.5,10.4,27c1.7,7.9,2.8,15.9,3.4,23.9c0.1,1.7-1.1,3.1-2.8,3.2c-1.6,0.1-3.1-1.1-3.2-2.7l-0.2-1.8
							c-1.9-20.1-5.1-33.8-12.8-46.5c-11.1-18.3-29.9-28.6-58.7-28.9l-1.8,0c-14.1,0-28.2,0.8-42.2,2.5c-1.6,0.2-3.2-0.9-3.4-2.6
							C60.3,136.3,61.4,134.8,63.1,134.5C63.1,134.5,63.1,134.5,63.1,134.5z"/>
						<path id="Path-16" class="st4" d="M292.5,94.6C267.8,24,197.8-15.7,136.1,5.9C85.4,23.6,56.1,77.3,60.9,135
							c9.3-1.6,23.9-2.6,43.7-2.9c24.9-0.3,44.3,6.2,57.7,19.5c19,18.8,22.9,47.3,23.4,69.5c9.2,2.5,17.7,10,18.4,28.9
							c0.1,1.9-1.6,16.6-1.2,16.5c0,5.8,1.5,11.4,4.5,16.4c6.9,11.1,20.9,18,41.7,20.4h0.4c1.6,0,3-1.3,3-2.9c0-1.5-1.1-2.8-2.6-3
							c-18.8-2.2-31.4-8.1-37.3-17.6c-2.1-3.4-3.3-7.2-3.6-11.1c5.1,6,14,12.5,28.1,12.5c3.7,0,7.4-0.4,11.1-1.2
							c1.6-0.3,2.6-1.9,2.3-3.5c-0.3-1.6-1.9-2.6-3.5-2.3c-18.2,3.8-28.3-3.1-33.6-9.3c4.1-0.9,8.1-2,12.1-3.4
							C287.1,239.8,317.1,165.1,292.5,94.6z"/>
					</g>
					<g id="glasses" transform="translate(0 213)">
						<path id="Oval" class="st4" d="M136.3,76.6c-21.9,0-39.6-17.8-39.6-39.6c0-15.9,9.5-30.3,24.2-36.5
							C141-8,164.3,1.4,172.8,21.6c8.5,20.2-0.9,43.4-21.1,51.9l0,0C146.8,75.6,141.6,76.6,136.3,76.6z M136.3,3.4
							c-18.6,0-33.6,15-33.6,33.6s15,33.6,33.6,33.6s33.6-15,33.6-33.6C169.9,18.5,154.8,3.4,136.3,3.4z"/>
						<path id="Path-17" class="st4" d="M98.9,33.1c1.7,0,3,1.3,3,3c0,1.6-1.2,2.9-2.8,3l-0.2,0H75.1c-1.7,0-3-1.3-3-3
							c0-1.6,1.2-2.9,2.8-3l0.2,0H98.9z"/>
						<path id="Path-18" class="st4" d="M187.5,5c1.4-0.8,3.3-0.3,4.1,1.1c0.8,1.4,0.4,3.1-1,4l-0.2,0.1l-20.7,11.7
							c-1.4,0.8-3.3,0.3-4.1-1.1c-0.8-1.4-0.4-3.1,1-4l0.2-0.1L187.5,5z"/>
						<path id="Oval-2" class="st4" d="M37.3,76.6C15.4,76.6-2.3,58.8-2.3,37c0-15.9,9.5-30.3,24.2-36.5C42-8,65.3,1.4,73.8,21.6
							S72.9,65,52.7,73.5l0,0C47.8,75.6,42.6,76.6,37.3,76.6z M37.3,3.4C18.7,3.4,3.7,18.4,3.7,37s15,33.6,33.6,33.6
							s33.6-15,33.6-33.6C70.9,18.5,55.8,3.4,37.3,3.4z"/>
					</g>
				</g>
			</g>
			<g id="laptop" transform="translate(482 497)">
				<path id="shape" class="st1" d="M360,170.8h-20.8L329,19.5c-0.9-10.7-9.7-19.1-20.5-19.2H18.6C8.8,0.1,0.8,7.9,0.6,17.7
					c0,0.6,0,1.2,0.1,1.8L12,187c0.9,10.7,9.7,19.1,20.5,19.2l327.4-0.4c6,0,10.8-4.8,10.8-10.8v-13.3c0.1-5.9-4.6-10.8-10.5-10.9
					C360.1,170.8,360.1,170.8,360,170.8z"/>
				<g id="icon" transform="translate(140 61)">
					<path id="Path-19" class="st0" d="M44,39.4c-4.1-4.3-9.5-7.2-15.4-8.3c0.9-1.4,1.5-3,1.7-4.6c0.5-5.4-3.3-10.3-8.6-11.2h-0.3
						c-1.1-4.1-3.2-10.9-5.6-13.8C14.9,0.4,13.3,0,12,0.7c-1,0.6-1.3,1.9-0.7,2.9c0.1,0.1,0.2,0.2,0.3,0.3c1.6,1.9,3.5,7.8,4.7,12.3
						c-2.8,1.5-4.7,4.3-4.9,7.5c-0.2,3,0.8,5.9,2.8,8.1c-1.8,0.6-3.5,1.3-5.1,2.3C-1.3,40.6-2.6,53.4,6.2,62.9
						c8.8,9.4,24.5,11.8,34.9,5.3C51.6,61.7,52.9,48.8,44,39.4z"/>
					<path id="Path-20" class="st0" d="M39.6,1c0,0-15-3-17,9.5C22.7,10.5,34.5,14.7,39.6,1z"/>
				</g>
			</g>
			<path id="line" class="st4" d="M1222.9,703.2c1.7,0,3,1.3,3,3c0,1.6-1.2,2.9-2.8,3l-0.2,0H3.8c-1.7,0-3-1.3-3-3
				c0-1.6,1.2-2.9,2.8-3l0.2,0H1222.9z"/>
		</g>
	</g>
</g>
</svg>
